<svg width="1440" height="948" viewBox="0 0 1440 948" fill="none" xmlns="http://www.w3.org/2000/svg">
<rect width="1440" height="948" fill="url(#paint0_linear_417_47)"/>
<g opacity="0.04">
<path d="M1256.43 883.538C1202.11 877.064 1195.63 852.857 1187.4 822.177C1178.14 787.923 1166.72 745.308 1083.58 711.324C1041.92 694.331 1002 683.678 961.46 678.755C925.244 674.372 889.234 674.642 851.578 679.632C781.616 688.937 715.563 713.751 651.568 737.688C591.689 760.142 529.752 783.405 463.082 794.868C427.278 801.072 393.12 803.364 358.653 802.016C319.968 800.465 281.9 794.329 242.392 783.203C173.356 763.783 104.731 757.041 38.4728 763.109C26.2294 764.255 14.0889 765.806 2.05127 767.829V769.92C14.2947 767.897 26.538 766.278 38.9872 765.132C104.731 759.063 172.739 765.806 241.26 785.024C289.925 798.712 334.989 804.376 377.481 804.376C480.058 804.376 567.614 771.538 653.112 739.509C719.781 714.493 782.644 690.893 852.195 681.655C889.44 676.665 925.038 676.395 960.842 680.778C1001.07 685.633 1040.68 696.219 1081.94 713.077C1118.46 727.979 1163.94 746.522 1184.41 822.514C1188.63 838.36 1192.34 852.048 1202.11 863.039C1212.91 875.244 1230.09 882.391 1255.92 885.493C1332.36 894.663 1377.84 909.161 1398.93 931.143C1403.97 936.335 1407.67 941.999 1410.14 948H1413.33C1410.76 941.594 1406.95 935.66 1401.5 930.064C1379.9 907.61 1333.8 892.843 1256.43 883.538Z" fill="#848484"/>
<path d="M1196.58 905.671C1131.88 899.336 1125.81 886.597 1112.64 858.827C1101.12 834.63 1083.74 797.963 1015.74 744.783C924.286 673.202 827.279 717.957 714.944 769.789C601.067 822.363 471.964 881.879 314.366 839.011C253.981 822.565 193.082 814.477 133.211 814.814C88.6683 815.083 44.5368 820.071 2.05127 829.642V831.799C44.5368 822.16 88.5654 817.173 133.211 816.903C192.67 816.499 253.158 824.654 313.132 840.966C384.113 860.31 455.813 860.647 532.143 842.111C598.906 825.868 658.777 798.233 716.693 771.542C772.243 745.929 824.707 721.731 873.776 713.104C927.989 703.533 972.326 714.048 1013.37 746.198C1080.96 799.109 1098.24 835.506 1109.66 859.569C1122.83 887.338 1129.51 901.29 1196.17 907.828C1235.16 911.67 1259.54 921.107 1268.7 935.868C1270.96 939.575 1272.3 943.619 1272.81 948H1275.9C1275.49 943.349 1274.05 939.035 1271.58 935.126C1261.91 919.489 1236.7 909.648 1196.58 905.671Z" fill="#848484"/>
<path d="M876.856 814.589C848.267 802.136 809.908 802.54 762.911 816.003C725.581 826.638 682.698 845.485 635.392 871.871C587.058 898.93 543.866 928.547 516.923 948H521.036C547.98 928.547 590.144 899.738 637.346 873.352C684.446 847.033 727.021 828.321 764.043 817.753C810.011 804.627 847.342 804.088 875.005 816.205C939.279 844.273 973.421 891.66 1003.55 933.461C1007.15 938.375 1010.55 943.221 1014.04 947.933H1017.44C1013.73 942.952 1010.03 937.836 1006.33 932.586C976.198 890.583 941.85 842.927 876.856 814.589Z" fill="#848484"/>
<path d="M795.133 885.359C781.813 879.109 764.598 879.245 744.003 885.767C727.814 890.93 709.473 900.034 689.492 912.875C670.433 925.172 653.322 938.556 642.051 948H646.047C678.016 921.571 751.278 867.287 793.289 886.99C820.442 899.762 836.324 925.104 850.054 948H853.333C839.398 924.696 823.413 898.607 795.133 885.359Z" fill="#848484"/>
<path d="M287.787 884.288C261.343 879.857 233.973 875.292 209.382 869.854C148.366 856.226 77.678 867.706 29.1123 879.723C19.5432 882.073 10.4885 884.557 2.05127 887.041V889.256C10.7972 886.705 20.2634 884.087 30.2441 881.603C78.2954 869.72 148.263 858.374 208.353 871.801C232.944 877.306 260.417 881.872 286.964 886.302C346.642 896.239 403.027 905.637 406.937 922.69C408.584 929.873 400.97 938.265 383.889 948H388.417C404.571 938.265 411.671 929.806 410.024 922.354C405.806 903.959 351.169 894.896 287.787 884.288Z" fill="#848484"/>
<path d="M248.223 913.181C227.897 910.86 203.156 910.996 180.366 913.591C138.174 918.37 55.6382 933.663 2.05127 943.972V946.088C55.6382 935.779 138.688 920.418 180.982 915.571C203.464 913.045 227.794 912.84 247.812 915.161C276.761 918.506 286.924 925.538 290.415 930.932C293.597 935.779 292.776 941.514 288.054 948H291.544C296.061 941.309 296.574 935.301 293.187 930.113C286.309 919.599 264.956 915.093 248.223 913.181Z" fill="#848484"/>
<path d="M128.699 541.328C175.239 561.849 205.614 591.28 232.282 617.268C262.554 646.699 288.81 672.148 329.79 676.265C333.6 676.67 337.513 676.805 341.425 676.805C373.036 676.805 410.618 664.857 458.291 639.679C494.02 620.778 523.777 603.633 550.033 588.445C605.429 556.381 645.482 533.228 689.757 525.735C734.959 518.04 784.589 526.14 860.989 553.614C923.386 576.092 997.83 591.55 1065.07 596.005C1096.37 598.098 1124.79 597.693 1147.34 594.723C1171.12 591.618 1187.8 586.015 1196.76 577.982C1209.01 566.979 1212 546.526 1156.29 511.492C1089.68 469.574 1013.89 464.511 933.682 459.178C880.552 455.668 825.569 451.956 770.07 437.308C707.262 420.77 652.793 392.014 603.472 349.555C567.023 318.166 524.498 303.316 480.326 306.623C450.26 308.851 420.709 319.246 392.496 337.404C364.181 355.765 338.645 381.078 316.817 412.669C300.548 436.093 282.632 448.108 261.73 449.323C216.528 451.956 164.222 402.139 113.769 353.942C88.5422 329.844 62.492 305.003 37.6773 287.183C24.8066 277.935 13.0686 271.117 2.05127 266.595V269.092C36.7506 284.078 74.436 319.989 111.195 355.09C136.524 379.256 162.78 404.299 188.007 422.525C214.984 441.965 238.048 451.483 258.332 451.483C259.568 451.483 260.803 451.416 262.039 451.348C284.074 450.065 302.916 437.713 319.597 413.547C341.322 382.158 366.549 357.048 394.658 338.889C422.356 321.001 451.289 310.809 480.635 308.648C523.571 305.476 565.272 320.056 601.001 350.837C650.63 393.634 705.614 422.525 768.835 439.198C824.745 453.981 879.935 457.626 933.271 461.203C1012.97 466.536 1088.23 471.531 1154.13 512.978C1208.29 547.066 1205.82 566.507 1194.29 576.835C1177.4 591.888 1129.21 598.3 1065.38 594.048C998.551 589.592 924.519 574.202 862.43 551.859C785.309 524.115 735.062 516.015 688.934 523.845C643.938 531.473 603.678 554.761 547.974 587.027C521.718 602.215 492.064 619.361 456.335 638.194C403.411 666.14 363.357 677.615 330.202 674.308C290.56 670.393 264.716 645.282 234.753 616.188C207.879 590.065 177.401 560.499 130.346 539.708C91.3223 522.495 54.1518 513.855 19.4524 513.855C13.5834 513.855 7.81733 514.125 2.05127 514.598V516.623C41.0752 513.18 83.5999 521.483 128.699 541.328Z" fill="#848484"/>
<path d="M59.744 739.394C107.358 739.866 160.629 746.144 207.626 751.612C274.986 759.511 328.051 765.721 334.633 751.41C344.505 729.943 312.419 712.189 259.149 682.823C220.996 661.761 173.381 635.569 122.476 597.9C84.2196 569.615 46.0664 556.788 9.25 559.894C6.98754 560.096 4.62225 560.366 2.05127 560.704V562.797C4.51941 562.459 7.09038 562.122 9.66136 561.919C45.4493 558.949 82.5742 571.505 120.213 599.25C171.324 637.054 218.939 663.314 257.195 684.443C309.437 713.269 341.009 730.685 331.753 750.87C325.994 763.426 271.387 757.013 208.243 749.655C140.061 741.689 60.0525 732.306 2.15411 740.406V742.499C18.4027 740.204 37.6336 739.124 59.744 739.394Z" fill="#848484"/>
<path d="M194.985 729.221C221.639 729.221 236.606 726.044 239.477 719.622C245.832 705.628 192.832 680.412 160.54 666.622C114.921 647.085 60.5875 628.697 31.3706 622.816C21.6317 620.855 11.7902 619.503 2.15378 618.692V620.72C11.4827 621.531 21.0166 622.883 30.448 624.776C59.4598 630.59 113.485 648.842 158.797 668.312C211.592 690.958 240.604 709.887 236.401 719.013C232.3 727.937 195.805 729.559 133.578 723.61C83.1408 718.81 30.5505 710.495 2.05127 705.222V707.318C30.7555 712.659 83.0383 720.838 133.066 725.638C158.182 728.004 178.685 729.221 194.985 729.221Z" fill="#848484"/>
<path d="M63.205 692.758C75.5801 692.758 82.4895 691.196 83.8302 688.071C86.7177 681.822 66.0925 671.429 48.2517 663.821C32.8859 657.232 15.3545 650.983 2.05127 647.179V649.42C15.0451 653.224 31.8547 659.27 46.6017 665.587C69.4957 675.369 82.5927 683.791 80.8395 687.527C78.0551 693.573 36.7016 690.177 2.05127 685.082V687.12C12.467 688.614 24.1202 690.109 35.4641 691.196C46.7048 692.214 55.883 692.758 63.205 692.758Z" fill="#848484"/>
<path fill-rule="evenodd" clip-rule="evenodd" d="M353.671 639.203C350.69 639.203 347.813 639 345.038 638.527C319.86 634.409 299.82 622.73 287.077 604.705C274.231 586.342 269.915 562.646 274.745 536.115C279.164 512.216 292.01 488.52 312.152 467.592C383.781 392.994 443.284 352.083 489.016 346.007C503.712 344.049 517.174 345.737 528.787 351.07C572.339 370.944 600.747 390.29 625.802 407.353L626.725 407.981L626.949 408.134C665.689 434.525 696.325 455.396 763.406 467.457C805.849 475.086 825.889 482.107 824.553 488.993C823.525 494.326 809.137 498.579 781.698 501.685C755.082 504.655 716.646 506.478 670.606 506.883C635.871 507.221 599.799 516.064 560.234 534.09C525.704 549.887 493.024 570.477 464.146 588.705C421.497 615.642 384.193 639.203 353.671 639.203ZM314.824 468.672C294.99 489.33 282.247 512.756 277.931 536.385C273.203 562.511 277.417 585.802 290.057 603.827C302.287 621.312 321.607 632.654 345.86 636.57C348.429 636.975 351.101 637.177 353.773 637.177C382.958 637.177 419.85 613.888 461.983 587.29L461.988 587.287C490.865 568.992 523.648 548.334 558.487 532.469C598.566 514.242 635.254 505.195 670.606 504.858C716.544 504.453 754.773 502.63 781.185 499.66C815.201 495.811 821.058 491.153 821.572 488.723C823.011 481.027 780.876 472.588 762.686 469.348C694.654 457.061 663.721 435.998 624.669 409.331L624.247 409.043C599.172 391.966 570.779 372.629 527.143 352.69C519.127 349.045 510.289 347.222 500.628 347.222C497.134 347.222 493.435 347.492 489.735 347.965C444.928 353.973 386.042 394.547 314.824 468.672Z" fill="#848484"/>
<path fill-rule="evenodd" clip-rule="evenodd" d="M1077.98 564.762C1029.68 560.155 974.569 552.5 942.02 547.284C887.737 538.613 864.458 530.89 861.78 520.797C859.411 511.652 874.45 500.61 908.956 486.045C927.805 478.119 952.32 476.426 982.088 481.168C1005.68 484.893 1032.56 492.616 1062.02 504.132C1111.05 523.303 1151.12 546.742 1153.07 547.894C1167.49 554.6 1173.26 559.613 1170.69 563.339C1168.22 566.794 1158.33 568.555 1140.61 568.555C1125.47 568.555 1104.66 567.268 1077.98 564.762ZM951.187 480.49C935.53 480.49 922.037 482.929 910.707 487.671C877.849 501.558 862.81 512.261 864.87 520.255C867.754 531.703 905.865 539.29 942.741 545.184C1032.15 559.478 1160.18 573.433 1167.8 562.391C1168.83 560.9 1168.11 557.242 1151.22 549.384L1151.12 549.316C1151.09 549.305 1150.94 549.215 1150.65 549.052C1146.02 546.379 1107.36 524.083 1060.47 505.758C1031.32 494.377 1004.75 486.722 981.47 483.064C970.655 481.371 960.56 480.49 951.187 480.49Z" fill="#848484"/>
<path d="M1440 529.125C1432.69 524.135 1424.34 519.01 1414.87 513.885C1378.82 494.397 1333.08 478.348 1278.91 466.143C1211.23 450.903 1130.17 441.597 1037.98 438.495C985.247 436.742 884.099 430.606 798.71 409.095C708.79 386.505 658.937 353.125 650.697 309.901C641.117 259.866 650.491 228.847 680.258 212.191C712.807 193.984 771.724 193.175 860.305 209.898C921.798 221.496 971.547 237.411 1011.51 250.223C1050.96 262.9 1082.17 272.88 1109.98 274.634C1140.16 276.522 1163.75 268.497 1186.41 248.604C1200.83 235.927 1212.26 223.924 1222.36 213.337C1242.65 191.961 1257.38 176.519 1281.38 170.787C1306.72 164.718 1341.02 169.843 1396.22 187.915C1411.98 193.04 1426.51 198.772 1440 204.706V202.278C1426.92 196.546 1412.81 191.084 1397.67 186.094C1341.63 167.753 1306.61 162.628 1280.35 168.831C1255.32 174.833 1240.49 190.477 1219.78 212.191C1209.79 222.71 1198.36 234.646 1184.04 247.323C1137.48 288.255 1090.62 273.217 1012.95 248.335C972.887 235.455 922.931 219.473 861.232 207.875C771.518 191.017 711.674 191.893 678.301 210.572C647.71 227.7 638.027 259.326 647.71 310.103C656.156 354.137 706.627 388.056 797.68 410.983C883.481 432.561 985.041 438.698 1037.88 440.518C1129.76 443.553 1210.41 452.858 1277.77 468.031C1331.54 480.169 1376.96 496.083 1412.7 515.369C1423.21 521.033 1432.27 526.697 1440 532.092V529.125Z" fill="#848484"/>
<path d="M1440 486.155C1418.19 475.403 1391.96 464.583 1362.22 454.373C1277.76 425.295 1178.18 405.076 1081.99 397.503C984.561 389.794 913.473 381.341 858.331 370.792C787.86 357.403 743.417 340.7 722.43 319.873C708.233 305.74 705.146 289.443 713.068 271.32C719.035 257.931 729.94 249.073 746.503 244.271C802.571 227.907 910.078 262.191 1004.93 292.418C1039.6 303.508 1072.42 313.922 1100.3 321.09C1147.31 333.194 1176.22 335.899 1197 330.016C1217.06 324.336 1228.59 311.217 1244.43 293.027C1254 282.072 1264.8 269.697 1280.03 256.038C1296.28 241.431 1316.86 233.79 1341.24 233.317C1374.57 232.708 1410.68 245.624 1440 259.824V257.322C1394.42 235.481 1361.61 230.95 1341.24 231.288C1315.93 231.761 1294.53 239.673 1277.66 254.82C1262.33 268.548 1251.53 281.058 1241.86 292.012C1210.79 327.514 1196.59 343.743 1101.43 319.196C1073.65 312.029 1040.94 301.615 1006.27 290.592C910.798 260.163 802.571 225.675 745.269 242.446C727.985 247.45 716.154 257.052 710.085 270.847C701.854 289.51 705.044 306.416 719.755 321.09C741.256 342.256 786.214 359.229 857.508 372.753C912.856 383.302 984.15 391.755 1081.68 399.464C1177.46 407.037 1276.63 427.189 1360.78 456.131C1390.93 466.544 1417.88 477.702 1440 488.792V486.155Z" fill="#848484"/>
<path d="M1439.9 455.262C1381.21 421.885 1301.63 408.535 1239.24 398.151C1178.7 388.037 1135.05 380.755 1139.79 361.066C1141.12 355.335 1153.27 355.74 1174.58 356.953C1194.35 358.032 1218.86 359.448 1242.02 354.324C1269.41 348.255 1288.25 334.568 1299.57 312.452C1307.5 296.943 1320.16 288.043 1337.05 286.155C1367.93 282.649 1408.5 302.338 1440 321.891V319.059C1439.18 318.587 1438.46 318.048 1437.63 317.576C1396.04 292.493 1362.06 281.233 1336.53 284.132C1318.41 286.155 1305.03 295.46 1296.69 311.777C1271.77 360.392 1213.5 357.088 1174.89 354.931C1153.89 353.717 1138.65 352.908 1136.8 360.797C1134.43 370.776 1142.77 378.463 1163.36 384.868C1181.69 390.599 1208.04 395.05 1238.52 400.107C1301.42 410.625 1381.63 424.043 1440 458.026V455.262H1439.9Z" fill="#848484"/>
<path d="M1440 437.354C1420.11 429.084 1398.27 417.356 1379.5 404.747C1351.41 385.834 1334.7 368.344 1332.54 355.396C1331.41 348.414 1334.59 342.855 1342.18 338.923C1368.84 325.094 1412.32 348.142 1440 366.514V363.599C1434.26 359.87 1428 356.006 1421.44 352.345C1406.16 343.872 1392.01 338.042 1379.61 335.059C1363.82 331.263 1350.49 332.008 1340.23 337.364C1331.82 341.702 1328.24 347.871 1329.47 355.667C1333.77 382.105 1393.76 420.813 1440 439.795V437.354Z" fill="#848484"/>
<path fill-rule="evenodd" clip-rule="evenodd" d="M1086.86 356.698C1087.22 356.863 1087.42 356.955 1087.45 356.97C1099.68 362.949 1103.9 367.853 1100.3 371.615C1096.19 375.578 1082.93 377.124 1065.45 377.124C1041.5 377.124 1009.43 374.235 981.264 370.54C912.701 361.605 847.325 346.423 806.413 329.964C760.362 311.422 744.737 291.336 761.287 271.854C765.707 266.614 773.108 263.255 783.182 261.777C815.664 257.007 876.826 271.652 964.817 305.175C1026.65 328.685 1080.67 353.818 1086.86 356.698ZM1059.59 374.974C1088.07 375.444 1095.67 372.287 1097.63 370.406C1100.92 367.114 1092.9 362.21 1085.6 358.649C1082.93 357.373 881.452 262.919 796.237 262.919C791.714 262.919 787.602 263.188 783.799 263.725C774.65 265.069 767.968 268.092 763.959 272.794C755.736 282.468 755.839 292.276 764.371 302.017C772.08 310.885 786.78 319.685 807.955 328.217C848.558 344.542 913.524 359.657 981.778 368.525C1011.07 372.354 1038.73 374.638 1059.59 374.974Z" fill="#848484"/>
<path fill-rule="evenodd" clip-rule="evenodd" d="M980.749 339.934C981.494 340.234 981.908 340.4 981.954 340.415C982.041 340.46 982.14 340.511 982.247 340.565C984.025 341.474 988.21 343.613 986.073 345.693C984.734 347.03 980.615 347.497 975.054 347.497C959.813 347.497 933.965 343.622 927.374 342.62C893.082 337.275 861.261 329.591 842.313 322.041C823.262 314.424 816.671 307.007 822.644 299.991C824.085 298.321 826.557 297.185 829.852 296.651C843.24 294.379 872.898 301.127 918.106 316.562C947.841 326.713 974.812 337.549 980.749 339.934ZM927.992 340.682C963.006 346.094 981.748 346.228 983.499 344.557C983.602 344.424 983.396 343.622 980.1 342.085C977.217 340.883 871.971 298.254 835.619 298.254C833.663 298.254 832.015 298.388 830.47 298.655C827.896 299.056 826.248 299.858 825.218 300.994C820.172 306.873 826.351 313.355 843.755 320.303C862.394 327.787 893.906 335.404 927.992 340.682Z" fill="#848484"/>
<path fill-rule="evenodd" clip-rule="evenodd" d="M373.859 588.504C363.601 591.337 355.189 592.484 348.317 592.484C334.366 592.484 326.673 587.695 322.467 582.77C295.079 550.862 356.933 448.123 441.047 408.053C466.178 396.113 488.746 391.256 508.03 393.684C523.93 395.708 537.572 402.521 548.651 413.989C559.524 425.187 564.756 438.139 564.038 451.496C563.319 464.785 556.652 477.535 544.855 488.328L541.676 491.229L541.49 491.399C502.363 527.166 461.936 564.123 373.859 588.504ZM442.893 409.739C404.837 427.886 367.396 461.412 342.777 499.392C319.697 535.01 312.722 567.322 325.134 581.758C333.443 591.405 349.342 593.024 372.627 586.548C460.024 562.33 500.234 525.565 539.111 489.947L542.291 487.047C553.78 476.591 560.242 464.246 560.96 451.361C561.678 438.409 556.549 425.862 546.086 415.069C535.521 404.14 522.493 397.597 507.517 395.708C504.44 395.303 501.26 395.101 498.08 395.101C481.77 395.101 463.306 400.025 442.893 409.739Z" fill="#848484"/>
<path fill-rule="evenodd" clip-rule="evenodd" d="M403.346 542.125C396.97 543.883 391.724 544.626 387.507 544.626C379.485 544.626 375.062 541.99 372.594 539.218C365.497 530.972 369.817 513.532 383.805 493.726C398.41 473.176 420.317 454.519 442.533 443.974C457.241 437.012 470.406 434.173 481.823 435.592C491.183 436.741 499.308 440.73 505.788 447.489C518.644 460.874 517.821 477.908 503.525 490.954C480.794 511.706 456.007 527.524 403.346 542.125ZM444.385 445.664C422.683 456.007 401.084 474.325 386.684 494.604C373.313 513.532 368.891 530.634 375.371 538.272C379.69 543.342 388.741 544.018 402.215 540.3C454.258 525.902 478.634 510.287 501.056 489.805C514.633 477.435 515.456 461.279 503.216 448.638C497.148 442.42 489.845 438.702 481.309 437.62C479.56 437.417 477.812 437.282 475.96 437.282C466.601 437.282 456.11 440.121 444.385 445.664Z" fill="#848484"/>
<path d="M426.709 505.884C428.031 505.884 429.658 505.685 431.591 505.154C446.644 501.04 453.661 496.529 460.171 490.623C464.442 486.775 464.747 481.666 460.882 477.751C458.848 475.694 456.407 474.5 453.458 474.102C450 473.637 445.932 474.5 441.558 476.557C428.235 482.86 416.843 498.519 421.624 504.026C422.336 504.823 423.759 505.884 426.709 505.884Z" fill="#848484" stroke="#575757" stroke-width="5"/>
<path d="M1439.69 889.134C1410.25 888.255 1381.63 885.754 1356.31 881.699C1322.95 876.36 1294.95 868.317 1273.13 857.908C1246.36 845.134 1228.76 828.643 1220.63 808.772C1209.3 780.858 1191.39 754.499 1168.85 732.466C1142.39 706.579 1109.96 686.641 1072.28 673.124C1003 648.184 918.691 645.818 821.82 666.094C704.464 690.629 613.152 716.38 546.445 735.237C461.31 759.23 414.367 772.477 403.661 757.946C402.734 756.662 402.632 755.31 403.455 753.823C409.529 742.806 459.868 727.802 518.238 710.499C561.68 697.59 610.991 682.924 649.8 667.379C694.684 649.4 718.258 633.112 721.861 617.634C726.906 595.871 740.288 580.596 760.465 573.499C783.422 565.456 814.82 567.551 853.939 579.717C925.794 602.021 1101.21 628.651 1207.76 628.651C1244.51 628.651 1273.13 625.474 1286.41 617.837C1294.44 613.241 1296.7 607.225 1293.1 599.926C1281.26 575.797 1294.95 550.857 1324.91 542.003C1362.48 530.919 1403.97 547.005 1439.69 572.756V569.376C1425.69 559.509 1411.48 551.804 1397.18 546.261C1370.92 536.056 1344.78 533.893 1323.67 540.178C1292.28 549.438 1277.86 575.392 1290.22 600.534C1293.41 607.023 1291.45 612.227 1284.45 616.282C1262.32 628.989 1190.77 630.07 1088.03 619.188C999.296 609.794 903.661 592.829 855.38 577.825C815.335 565.389 783.01 563.361 759.23 571.674C738.127 579.041 724.229 594.857 718.979 617.296C711.155 650.887 603.579 682.924 517.105 708.607C455.751 726.856 407.264 741.252 400.779 753.08C399.646 755.107 399.749 757 401.087 758.757C406.852 766.597 420.956 767.949 447 763.15C470.986 758.69 504.958 749.16 547.886 737.061C614.491 718.272 705.802 692.521 822.953 667.987C919 647.913 1002.49 650.211 1071.05 674.813C1108.21 688.196 1140.33 707.931 1166.48 733.479C1188.82 755.378 1206.63 781.534 1217.85 809.178C1226.08 829.454 1244.1 846.351 1271.48 859.395C1293.61 869.939 1322.03 878.049 1355.79 883.524C1381.42 887.647 1410.35 890.215 1440 891.026V889.134H1439.69Z" fill="#848484"/>
<path d="M1439.9 847.88C1391.68 855.238 1353.66 854.091 1324.39 844.438C1281.22 830.127 1262.26 798.94 1248.25 767.349C1233.41 734.002 1190.86 709.364 1156.65 689.585C1133.68 676.287 1115.54 665.824 1114.72 657.454C1114.51 655.091 1115.75 652.999 1118.43 651.041C1127.8 644.156 1157.68 648.476 1195.6 653.944C1226 658.331 1263.91 663.799 1303.38 665.284C1321.61 665.959 1333.56 663.934 1340.06 659.074C1349.33 652.054 1345.83 640.308 1342.12 627.887C1336.86 610.539 1331.5 592.651 1356.54 582.795C1364.89 579.488 1374.16 578.88 1384.05 580.77C1400.74 584.078 1419.81 595.013 1440 612.632V609.189C1423.51 595.148 1404.25 582.66 1384.98 578.88C1374.26 576.72 1364.17 577.463 1355 581.04C1328.1 591.638 1333.98 611.079 1339.13 628.292C1342.74 640.24 1346.14 651.514 1337.79 657.791C1332.02 662.112 1320.79 663.934 1303.58 663.259C1264.33 661.774 1226.61 656.306 1196.32 651.919C1156.04 646.113 1126.88 641.861 1116.26 649.623C1113.07 651.986 1111.52 654.619 1111.83 657.521C1112.66 666.702 1131.2 677.435 1154.8 691.003C1188.7 710.579 1230.94 735.015 1245.47 767.822C1259.69 799.818 1278.85 831.477 1323.16 846.125C1340.16 851.728 1360.04 854.563 1383.02 854.563C1400.23 854.563 1419.19 853.011 1440 849.838V847.88H1439.9Z" fill="#848484"/>
<path d="M1440 795.931C1415.76 800.053 1386.19 802.418 1362.16 796.404C1344.49 792.013 1331.65 783.5 1324.05 771.203C1313.58 754.177 1295.2 738.367 1280.41 725.665C1265.82 713.165 1253.29 702.355 1257.2 697.491C1259.66 694.45 1268.6 693.302 1284.51 693.91L1289.86 694.112C1337.51 696.004 1361.54 696.95 1373.35 689.856C1379.1 686.41 1381.87 681.005 1382.18 672.424C1382.69 660.601 1392.25 650.736 1406.01 647.831C1416.28 645.669 1427.88 647.358 1440 652.493V649.993C1424.39 643.777 1412.27 644.385 1405.08 645.939C1390.09 649.115 1379.61 659.722 1379.1 672.424C1378.79 680.397 1376.33 685.329 1371.3 688.369C1360.41 694.923 1335.45 693.91 1290.06 692.085L1284.72 691.883C1267.16 691.207 1257.61 692.694 1254.42 696.545C1249.6 702.558 1261.41 712.76 1277.84 726.949C1292.53 739.583 1310.81 755.258 1321.08 772.014C1328.98 784.851 1342.44 793.702 1360.92 798.364C1371.81 801.066 1383.72 802.147 1395.63 802.147C1411.35 802.147 1426.96 800.323 1439.9 798.161V795.931H1440Z" fill="#848484"/>
<path d="M1440 757.947C1415.09 758.355 1379.81 756.316 1373.16 742.04C1369.12 733.339 1371.92 724.909 1380.84 718.315C1392.88 709.409 1414.16 704.787 1440 705.059V703.019C1413.22 702.815 1391.12 707.642 1378.56 716.955C1368.81 724.161 1365.8 733.271 1370.16 742.652C1374.93 752.849 1392.57 758.627 1422.56 759.783C1426.51 759.919 1430.45 759.987 1434.19 759.987C1436.16 759.987 1438.03 759.987 1439.9 759.919V757.947H1440Z" fill="#848484"/>
<path d="M115.549 509.264C154.587 519.741 191.869 529.813 217.067 529.813C223.883 529.813 229.77 529.07 234.624 527.447C241.44 525.149 245.777 521.026 247.636 515.28C252.077 501.761 230.08 488.715 196.722 468.977C163.675 449.442 118.441 422.741 78.4739 382.724C51.4162 355.618 25.8042 338.179 2.15454 330.405V332.636C24.9781 340.409 49.6605 357.444 75.892 383.806C116.169 424.093 161.506 450.861 194.657 470.464C227.188 489.729 248.772 502.437 244.641 514.807C242.886 520.012 239.168 523.527 233.178 525.555C211.8 532.923 165.637 520.485 116.788 507.304C84.567 498.651 51.2096 489.661 22.2929 485.605C15.0638 484.591 8.2477 483.915 2.05127 483.577V485.605C8.04115 485.943 14.6507 486.552 21.6733 487.566C50.2801 491.689 83.431 500.612 115.549 509.264Z" fill="#848484"/>
<path d="M99.6536 472.839C110.271 472.839 117.01 471.092 119.766 467.665C126.504 459.064 106.188 442.669 59.2242 418.747C37.9885 407.996 15.9361 398.051 2.05127 391.937V394.289C48.5042 414.649 127.73 453.151 117.112 466.725C114.866 469.614 108.74 470.891 100.164 470.891C77.6012 470.891 37.5801 462.424 2.05127 453.42V455.57C9.70835 457.519 17.7738 459.468 25.9414 461.349C59.1221 469.009 83.8289 472.839 99.6536 472.839Z" fill="#848484"/>
<path fill-rule="evenodd" clip-rule="evenodd" d="M543.163 631.082C548.744 624.93 554.635 619.388 560.836 614.521C580.576 598.974 610.237 590.862 640.105 592.755C657.674 593.904 666.563 597.96 666.666 604.922C666.873 627.972 559.699 676.1 511.435 679.48C504.407 680.021 499.033 680.224 495.002 680.224C486.321 680.224 483.427 679.21 482.394 677.723C480.327 674.613 487.768 670.152 500.17 662.716L500.17 662.716C513.399 654.808 531.485 643.992 543.163 631.082ZM605.379 648.048C641.448 631.284 663.875 614.723 663.772 604.99C663.668 599.244 655.711 595.864 640.105 594.85C637.314 594.648 634.524 594.58 631.734 594.58C605.689 594.58 580.679 602.286 563.42 615.805C557.322 620.537 551.534 626.08 546.057 632.096C534.278 645.159 516.104 656.031 502.803 663.988L502.443 664.203L501.975 664.485C493.232 669.737 484.276 675.117 485.494 676.844C486.218 677.925 491.282 678.872 511.331 677.452C533.448 675.897 570.344 664.339 605.379 648.048Z" fill="#848484"/>
<path d="M102.665 269.659C125.836 297.631 150.655 326.413 174.855 347.426C201.528 370.466 224.699 381.681 245.81 381.681C246.016 381.681 246.222 381.681 246.428 381.681C267.436 381.479 285.973 370.398 303.068 347.967C339.009 300.874 381.54 272.091 426.132 264.862C456.614 259.929 487.921 264.794 519.125 279.456C543.119 290.739 560.215 294.455 571.131 290.874C587.299 285.604 588.226 265.943 589.255 243.241C590.388 218.309 591.624 190 614.383 177.027C624.99 171.014 639.202 168.784 657.842 170.136C706.655 173.784 753.1 168.919 792.13 156.217C829.204 144.123 857.936 125.678 875.134 102.841C891.508 81.1526 896.245 56.694 889.036 32.2355C886.05 22.0332 881.004 12.0336 874.104 2.2367H870.603C894.701 35.6138 896.039 70.7476 872.456 101.963C855.567 124.394 827.35 142.502 790.894 154.393C752.379 166.96 706.449 171.69 658.254 168.109C638.996 166.69 623.549 169.122 612.426 175.473C588.638 188.986 587.402 217.769 586.166 243.106C585.239 264.254 584.312 284.253 569.792 288.982C559.906 292.225 543.943 288.509 520.875 277.699C488.848 262.7 456.717 257.7 425.308 262.767C379.79 270.199 336.537 299.32 300.288 346.953C283.707 368.641 266.098 379.317 246.428 379.519C246.222 379.519 246.016 379.519 245.81 379.519C201.013 379.519 151.89 324.724 105.342 268.51C76.8163 234.052 42.1113 210.404 2.05127 197.837V200.067C41.0815 212.769 74.8596 236.011 102.665 269.659Z" fill="#848484"/>
<path d="M141.129 183.413C158.925 183.413 174.561 181.729 187.42 178.292C216.737 170.476 231.344 154.507 230.83 130.655C230.316 107.275 239.882 89.8909 260.044 77.5605C309.73 46.9704 416.713 52.226 530.073 57.8858C546.738 58.6944 564.02 59.5703 580.993 60.3115C597.555 61.0526 612.779 61.3895 626.769 61.3895C690.65 61.3895 726.86 53.9105 734.781 39.0197C740.336 28.5086 731.078 15.7739 716.265 3.37617H712.253C727.477 15.7065 737.147 28.3064 731.901 38.4133C722.848 55.5276 672.237 62.2655 581.302 58.3575C564.328 57.6163 547.046 56.7404 530.382 55.9318C416.404 50.272 308.701 44.949 257.987 76.1456C237.208 88.9476 227.332 106.803 227.847 130.79C228.361 153.699 214.371 169.129 186.391 176.54C150.387 186.108 91.8551 181.729 25.6081 164.547C17.6872 162.526 9.86925 160.302 2.05127 158.011V160.235C9.45777 162.458 16.9671 164.547 24.4765 166.433C67.784 177.618 108.108 183.413 141.129 183.413Z" fill="#848484"/>
<path d="M82.3435 119.468C119.354 117.983 150.71 105.226 175.692 81.5353L179.804 77.6206C210.132 48.8678 225.348 34.4239 247.863 28.4168C270.377 22.4097 300.911 24.5696 361.773 28.9568C369.175 29.4967 377.091 30.0367 385.418 30.6441C457.486 35.7738 509.712 37.4611 545.077 35.8412C579.106 34.2889 598.434 29.7667 605.836 21.5998C610.36 16.6052 610.154 10.5306 606.453 3.37617H603.266C606.967 10.2607 607.378 15.9977 603.163 20.5874C596.378 28.0793 577.359 32.399 544.872 33.8839C509.712 35.4363 457.691 33.7489 385.727 28.6193C377.399 28.0118 369.483 27.4719 362.081 26.9319C300.705 22.4772 269.966 20.2499 246.629 26.5269C223.292 32.804 207.871 47.3829 177.234 76.4732L173.122 80.3879C148.654 103.539 118.12 116.025 82.1378 117.443C63.6326 118.185 36.8 116.093 2.05127 105.429V107.656C32.5849 116.903 57.053 119.602 75.2498 119.602C77.7172 119.602 80.0817 119.535 82.3435 119.468Z" fill="#848484"/>
<path d="M124.055 71.4095C138.716 66.9186 148.763 59.2774 153.787 48.687C161.271 33.2706 162.911 17.7201 161.681 3.37617H158.605C159.836 17.5191 158.195 32.8684 150.814 48.0838C145.995 58.1379 136.46 65.3769 122.619 69.5997C89.7093 79.7209 38.4473 71.4095 2.05127 63.2321V65.377C26.5545 70.8732 57.5167 76.3025 85.4032 76.3025C99.449 76.2355 112.777 74.8949 124.055 71.4095Z" fill="#848484"/>
<path d="M759.906 52.0533C739.413 78.4467 649.204 74.8691 648.174 74.8015C597.612 74.8015 550.654 72.439 509.256 70.2789C447.675 67.1063 394.435 64.4062 355.097 71.0889C334.295 74.599 318.128 80.6067 305.77 89.382C292.383 98.8323 283.321 111.59 277.966 128.263C260.151 184.02 213.502 190.703 175.914 196.035C153.259 199.276 133.693 202.043 127.205 215.274C121.336 227.356 128.132 251.387 144.712 276.498C162.424 303.431 186.521 324.29 209.176 332.255C216.488 334.82 223.799 336.103 230.699 336.103C243.88 336.103 256.341 331.512 267.256 322.535C283.836 308.899 297.326 294.049 310.404 279.671C334.81 252.805 355.818 229.652 388.462 224.454C408.543 221.281 431.919 225.196 459.723 236.604C496.59 251.657 522.128 256.382 537.884 251.05C557.45 244.435 559.407 223.981 561.466 202.246C564.247 173.085 567.13 142.911 612.853 144.261C623.356 144.531 633.448 144.734 643.231 144.734C742.091 144.734 806.247 129.411 833.948 99.0348C855.779 75.2066 850.218 46.4506 841.774 26.605C837.758 17.0872 832.712 8.71691 828.284 2.2367H824.886C829.417 8.71691 834.669 17.4247 838.788 27.2125C853.72 62.5161 842.907 85.1969 831.27 98.0223C801.407 130.693 727.88 145.611 612.956 142.304C591.021 141.696 576.398 147.771 568.263 160.934C561.157 172.342 559.716 187.53 558.377 202.246C556.42 223.374 554.464 243.287 536.443 249.362C521.717 254.357 497.208 249.632 461.268 234.984C432.64 223.306 408.543 219.256 387.638 222.631C353.758 228.032 332.339 251.522 307.624 278.793C294.649 293.104 281.158 307.887 264.682 321.387C248.617 334.55 230.39 337.588 210.412 330.567C188.375 322.805 164.69 302.351 147.286 275.823C131.325 251.522 124.322 227.492 129.883 216.016C135.856 203.866 153.671 201.301 176.326 198.128C195.274 195.428 216.694 192.39 235.848 182.805C257.988 171.735 272.714 154.049 280.747 128.736C290.735 97.3473 313.803 80.2017 355.612 73.114C373.118 70.1439 393.611 69.0639 416.369 69.0639C443.968 69.0639 475.17 70.6839 508.741 72.3715C550.242 74.464 597.2 76.8941 647.762 76.8941C647.762 76.8941 647.762 76.8941 647.865 76.8941C648.071 76.8941 671.345 77.9066 696.78 75.4766C731.381 72.2365 753.419 64.6762 762.481 53.0658C772.264 40.4429 765.982 23.4324 743.739 2.3042H740.031C762.687 23.2299 769.277 39.9029 759.906 52.0533Z" fill="#848484"/>
<path d="M766.195 76.7514C749.306 90.613 698.228 96.3605 618.625 93.3853C558.176 91.154 502.155 84.595 501.64 84.5274C501.331 84.4598 467.142 80.4704 428.627 85.4065C405.869 88.2464 386.097 93.5882 369.723 101.297C349.23 110.898 334.092 124.151 324.824 140.65C306.905 172.633 286.824 194.474 263.345 207.456C242.955 218.749 223.08 221.724 204.543 223.82C177.46 226.863 168.294 238.222 165.411 247.216C159.644 264.796 173.546 288.53 195.172 298.064C201.042 300.634 207.015 301.918 212.782 301.918C218.137 301.918 223.389 300.836 228.332 298.605C248.619 289.544 269.421 272.099 291.458 253.707C333.371 218.613 376.725 182.37 420.286 200.559C426.671 203.196 432.849 205.834 438.719 208.403C470.643 222.129 495.976 233.016 511.938 227.877C521.412 224.834 526.767 216.788 528.723 202.453C532.74 172.836 540.154 150.522 563.325 137.945C579.801 128.952 603.281 125.639 635.204 127.668C724.591 133.415 783.495 123.002 810.373 96.8338C831.896 75.8724 828.188 48.6224 821.289 29.419C817.375 18.5326 812.02 8.93085 807.798 2.2367H804.503C808.725 8.86323 814.286 18.6678 818.302 29.8923C824.996 48.6901 828.6 75.3314 807.798 95.6844C781.641 121.176 723.664 131.251 635.513 125.639C602.766 123.543 578.566 127.059 561.368 136.39C537.477 149.44 529.753 172.16 525.634 202.317C523.78 215.706 518.94 223.482 510.599 226.119C496.182 230.717 471.57 220.169 440.47 206.78C434.497 204.211 428.318 201.574 421.933 198.937C401.235 190.282 378.888 192.445 353.658 205.563C331.62 216.923 309.995 235.044 289.09 252.557C267.258 270.882 246.559 288.124 226.684 297.05C215.047 302.256 204.131 299.619 196.923 296.441C176.224 287.313 162.94 264.526 168.397 247.689C171.178 239.304 179.725 228.688 205.058 225.848C224.006 223.685 244.293 220.642 265.301 209.012C289.193 195.759 309.583 173.648 327.707 141.326C336.769 125.166 351.495 112.251 371.37 102.919C387.332 95.4139 406.795 90.2073 429.039 87.3674C443.456 85.5417 457.255 84.9331 468.892 84.9331C487.84 84.9331 500.816 86.4884 501.022 86.4884C501.537 86.556 557.764 93.1149 618.419 95.3463C700.185 98.3891 750.748 92.5739 768.563 77.9685C786.173 63.566 790.292 44.2273 780.406 21.8458C777.007 14.205 772.579 7.44326 768.666 2.2367H765.165C769.181 7.37564 773.918 14.4079 777.419 22.3868C784.113 37.6008 787.614 59.2384 766.195 76.7514Z" fill="#848484"/>
<path fill-rule="evenodd" clip-rule="evenodd" d="M438.589 103.534C449.517 100.009 461.671 99.2639 472.906 101.5C483.834 103.669 492.107 108.21 497.418 114.987C513.351 135.387 499.256 171.24 489.451 190.758C486.898 195.909 483.732 198.62 479.544 199.23L479.544 199.23C478.931 199.298 478.319 199.366 477.706 199.366C470.902 199.366 463.089 194.073 453.362 187.484L453.194 187.37C443.9 181.067 433.38 173.951 420.716 168.935C399.574 160.531 389.156 151.111 389.769 140.809C390.893 122.849 426.333 107.532 438.589 103.534ZM478.932 197.265C481.893 196.79 484.447 194.486 486.592 190.148C509.061 145.282 501.299 124.408 494.66 116.004C489.758 109.769 482.098 105.567 471.987 103.534C468.003 102.72 463.918 102.314 459.731 102.314C452.99 102.314 446.249 103.33 439.917 105.364C428.069 109.227 393.855 123.934 392.833 140.877C392.22 150.365 402.229 159.244 422.35 167.173C435.2 172.209 446.245 179.705 455.189 185.775L455.441 185.946L455.557 186.025C465.108 192.498 473.337 198.075 478.932 197.265Z" fill="#848484"/>
<path fill-rule="evenodd" clip-rule="evenodd" d="M444.102 135.512C447.643 134.358 451.588 134.087 455.229 134.833C458.871 135.58 461.602 137.073 463.322 139.38C468.379 145.895 464.03 157.092 460.995 163.199C460.489 164.353 459.478 165.914 457.252 166.253C456.949 166.321 456.747 166.321 456.443 166.321C453.938 166.321 451.533 164.657 448.342 162.449L448.249 162.385C445.518 160.485 442.382 158.313 438.64 156.82C431.862 154.106 428.524 150.984 428.726 147.523C429.106 141.037 442.185 136.22 443.915 135.583C444.031 135.54 444.096 135.516 444.102 135.512ZM456.646 164.217C456.949 164.217 457.556 163.674 458.163 162.521C460.389 157.838 465.345 146.302 460.793 140.262C459.377 138.498 457.354 137.344 454.522 136.801C453.409 136.598 452.195 136.462 451.082 136.462C449.16 136.462 447.339 136.733 445.519 137.344C442.787 138.294 432.166 142.705 431.863 147.659C431.66 150.238 434.493 152.749 440.259 155.056C444.305 156.685 447.744 159.06 450.475 160.96C450.613 161.052 450.752 161.146 450.894 161.241C453.044 162.687 455.602 164.408 456.646 164.217Z" fill="#848484"/>
<path d="M1440 158.836C1383.17 132.218 1314.72 110.059 1260.46 122.489C1221.2 131.475 1193.97 157.687 1179.69 200.384C1173.11 220.11 1156.67 232.541 1130.87 237.338C1082.57 246.39 1005.29 225.583 951.333 188.899C908.067 159.579 890.699 127.354 903.648 100.533C915.672 75.672 919.064 48.6489 913.822 20.3422C912.692 14.3295 911.15 8.31689 909.3 2.2367H906.115C908.067 8.45201 909.609 14.5322 910.739 20.6124C915.98 48.6489 912.589 75.4017 900.771 99.9927C887.411 127.556 905.087 160.457 949.175 190.385C974.867 207.815 1007.14 222.475 1040.13 231.663C1063.56 238.216 1086.17 241.526 1106.1 241.526C1115.35 241.526 1123.99 240.783 1131.8 239.364C1158.31 234.433 1175.99 221.124 1182.77 200.856C1196.85 158.903 1223.26 133.231 1261.49 124.449C1315.14 112.153 1383.48 134.717 1440 161.403V158.836Z" fill="#848484"/>
<path d="M1440 106.188C1398.03 82.6299 1332.2 61.7722 1278.71 68.8598C1245.49 73.2473 1220.18 87.7599 1203.62 111.858C1180.69 145.203 1151.58 168.558 1117.01 181.383C1079.98 195.086 1047.07 192.791 1025.98 188.471C1000.47 183.206 978.459 172.136 963.956 157.286C948.938 141.963 943.384 123.873 948.424 106.39C958.813 70.0748 962.824 35.1095 960.253 2.2367H957.167C959.636 34.907 955.727 69.8048 945.441 105.985C940.298 124.008 945.955 142.57 961.384 158.298C976.299 173.553 998.929 184.893 1025.16 190.293C1036.16 192.588 1047.48 193.668 1058.79 193.668C1079.06 193.668 1099.53 190.091 1118.56 183.071C1153.74 170.043 1183.26 146.35 1206.5 112.6C1222.65 89.1099 1247.13 75.0698 1279.33 70.7498C1305.46 67.3072 1336.83 70.4123 1370.05 79.8623C1394.95 86.9499 1420.04 97.345 1440 108.82V106.188Z" fill="#848484"/>
<path d="M768.359 925.032C765.71 923.384 762.347 922.724 758.475 922.988C745.331 923.911 727.398 936.111 713.846 946.86H717.82C730.76 936.705 747.267 925.824 758.781 924.966C761.736 924.768 764.181 925.23 766.219 926.483C773.25 930.77 781.096 938.617 788.228 946.86H791.794C784.356 938.156 775.899 929.714 768.359 925.032Z" fill="#848484"/>
<path d="M1440 67.381C1431.54 67.8536 1422.16 67.8536 1412.15 67.2459C1376.98 65.0854 1334.49 56.1734 1295.5 42.6703C1250.32 27.0066 1212.57 50.367 1168.94 77.3733C1135.73 97.9655 1098.08 121.258 1051.46 129.698C1035.06 132.669 1022.38 131.116 1013.61 125.242C983.803 105.055 1003.71 38.9569 1017.32 3.37617H1014.13C1010 14.2462 1005.26 27.8168 1001.54 41.9951C990.094 86.0828 993.395 114.574 1011.34 126.727C1017.84 131.116 1026.19 133.276 1036.3 133.276C1041.25 133.276 1046.51 132.736 1052.29 131.723C1099.53 123.216 1137.59 99.7209 1171.01 78.9261C1213.81 52.46 1250.73 29.5722 1293.95 44.5607C1333.76 58.4014 1375.64 67.1784 1411.74 69.3389C1421.85 69.9466 1431.34 70.0141 1439.9 69.5415V67.381H1440Z" fill="#848484"/>
<path d="M1059.56 92.0533C1061.21 92.1878 1062.75 92.2551 1064.39 92.2551C1091.7 92.2551 1122.19 72.6089 1138.51 60.3637C1160.17 44.2161 1181.22 23.2242 1195.9 3.37617H1192.51C1178.03 22.7533 1157.4 43.2069 1136.25 59.018C1107.1 80.8173 1079.99 91.8514 1059.97 90.0348C1051.66 89.2947 1046.22 86.8053 1043.34 82.5666C1032.56 66.419 1061.72 28.8759 1084.61 3.44345H1081.02C1076.5 8.55685 1071.68 14.0739 1067.06 19.7929C1041.91 50.8097 1032.97 72.2052 1040.57 83.374C1043.75 88.2855 1050.22 91.2459 1059.56 92.0533Z" fill="#848484"/>
<path d="M1100.45 46.6088C1101.07 46.6762 1101.8 46.6762 1102.53 46.6762C1108.78 46.6762 1118.66 44.2522 1132.4 34.085C1142.6 26.6111 1152.39 16.4439 1158.11 7.55597C1159.05 6.07465 1160.09 4.25667 1161.03 2.30403H1157.8C1157.07 3.71801 1156.24 5.19933 1155.3 6.74798C1143.54 25.0624 1116.69 46.0029 1100.97 44.5215C1098.06 44.2522 1096.18 43.4442 1095.14 41.9629C1089.83 34.1523 1111.38 11.0573 1120.64 2.2367H1116.9C1110.23 8.76795 1085.98 33.3443 1092.33 42.7709C1093.69 44.9255 1096.39 46.2048 1100.45 46.6088Z" fill="#848484"/>
<path d="M1439.9 39.9244C1425.84 44.9585 1409.52 46.7952 1391.25 45.2306C1370.83 43.5299 1347.95 37.8155 1323.11 28.2235C1301.46 19.856 1282.06 9.92389 1268.31 2.2367H1263.59C1277.65 10.196 1298.28 21.0125 1321.57 29.9922C1346.82 39.7203 1370.11 45.5707 1390.95 47.2714C1395.26 47.6116 1399.46 47.8156 1403.67 47.8156C1417.01 47.8156 1429.12 45.9789 1440 42.2373V39.9244H1439.9Z" fill="#848484"/>
<path fill-rule="evenodd" clip-rule="evenodd" d="M782.359 607.465C801.948 599.842 835.896 599.638 883.278 606.92C916.014 611.989 944.144 619.031 948.18 620.042C948.317 620.076 948.426 620.103 948.507 620.123C978.967 623.867 982.762 627.201 982.556 629.651C982.351 632.986 974.147 637.546 912.2 643.671C873.74 647.482 827.896 650.613 794.461 652.859L786.154 653.403C780.103 653.812 774.667 654.016 769.744 654.016C750.976 654.016 740.002 651.021 737.13 645.168C731.9 634.62 756.001 617.741 782.359 607.465ZM911.585 641.697C972.403 635.64 979.172 631.217 979.275 629.583C979.377 628.767 977.223 625.772 947.583 622.097L947.276 622.029C947.26 622.026 947.169 622.003 947.006 621.961C943.948 621.187 915.56 613.998 882.458 608.894C864.51 606.104 843.075 603.654 823.588 603.654C808.307 603.654 794.154 605.219 783.795 609.234C770.77 614.339 758.565 620.94 750.258 627.406C741.54 634.279 737.848 640.336 739.899 644.556C743.079 650.817 758.873 653.199 785.641 651.362L794.051 650.885C796.522 650.714 799.06 650.539 801.658 650.36C834.206 648.114 876.062 645.227 911.585 641.697Z" fill="#848484"/>
<path fill-rule="evenodd" clip-rule="evenodd" d="M804.144 179.788C803.329 174.451 814.433 168.181 837.048 161.043C851.92 156.374 869.543 157.841 881.971 164.846C891.75 170.382 902.345 178.254 897.047 184.791C892.973 189.861 880.036 192.529 862.82 192.529C851.309 192.529 837.862 191.328 823.805 188.86C811.071 186.659 804.654 183.657 804.144 179.788ZM824.518 186.925C857.014 192.662 888.287 191.261 894.297 183.857C897.761 179.654 892.769 173.584 879.934 166.38C872.803 162.444 863.941 160.376 854.976 160.376C849.272 160.376 843.567 161.177 838.27 162.844C817.591 169.382 806.487 175.318 807.099 179.588C807.506 182.456 813.516 184.991 824.518 186.925Z" fill="#848484"/>
<path d="M1128.51 926.003C1074.92 921.562 1043.44 891.823 1003.73 854.145C992.625 843.649 981.104 832.749 968.143 821.446C935.636 793.12 899.221 776.097 860.029 770.849C815.487 764.928 766.522 774.079 714.574 798.031C657.483 824.339 574.88 866.66 504.005 905.953C484.151 916.987 458.229 931.655 432.82 946.861H437.346C457.509 934.884 480.448 921.697 505.959 907.5C576.732 868.274 659.232 825.954 716.22 799.713C813.018 755.105 896.958 762.843 965.571 822.724C978.429 833.96 989.951 844.86 1001.06 855.356C1041.28 893.438 1073.07 923.446 1128 928.021C1166.99 931.251 1189.31 937.576 1194.66 946.861H1197.95C1192.91 936.432 1169.56 929.434 1128.51 926.003Z" fill="#848484"/>
<path d="M835.498 848.043C816 842.472 795.987 843.143 775.973 849.99C726.351 866.907 681.371 886.912 642.272 909.536C618.235 923.432 600.078 936.187 586.667 946.861H590.794C621.33 922.895 680.34 884.831 777.314 851.736C796.502 845.224 815.588 844.553 834.157 849.856C871.606 860.53 900.904 893.424 918.855 919.202C925.767 929.004 931.544 938.603 936.186 946.861H939.488C934.742 938.402 928.862 928.534 921.743 918.397C895.333 880.468 866.241 856.77 835.498 848.043Z" fill="#848484"/>
<path d="M1255.02 532.552C1257.93 533.028 1260.64 533.231 1263.24 533.231C1277.18 533.231 1286.96 526.773 1290.6 519.839C1294.97 511.341 1291.53 499.92 1273.64 495.025C1244.72 487.071 1224.43 484.691 1213.19 487.887C1208.1 489.314 1205.7 492.713 1206.22 497.472C1206.95 503.523 1212.47 511.069 1221 517.731C1230.57 525.209 1242.64 530.444 1255.02 532.552Z" fill="#848484" stroke="#575757" stroke-width="5"/>
<path fill-rule="evenodd" clip-rule="evenodd" d="M352.792 711.937C349.161 707.071 349.784 700.043 359.951 696.123C375.305 690.243 396.054 692.946 404.25 697.542C407.778 699.502 409.023 701.8 407.674 703.962C404.976 708.558 394.602 713.289 376.965 717.952C374.371 718.628 371.778 718.966 369.392 718.966C361.714 718.966 355.697 715.722 352.792 711.937ZM375.824 716.06C392.423 711.667 402.486 707.206 404.873 703.219C405.91 701.529 404.043 700.043 402.175 699.096C397.818 696.663 389.207 694.839 380.077 694.839C373.749 694.839 367.213 695.717 361.507 697.88C353 701.124 352.377 706.801 355.593 710.991C358.809 715.181 366.487 718.56 375.824 716.06Z" fill="#848484"/>
<path fill-rule="evenodd" clip-rule="evenodd" d="M516.505 877.999C512.512 884.792 469.194 899.614 454.858 903.525C451.786 904.417 448.918 904.76 446.051 904.691C437.244 904.691 430.383 900.917 427.004 896.389C422.703 890.625 423.522 882.322 435.196 877.725C455.677 869.628 504.934 868.324 514.765 873.951C516.813 875.049 517.427 876.49 516.505 877.999ZM436.732 879.509C426.697 883.489 425.98 890.419 429.769 895.497C433.558 900.575 442.672 904.692 453.629 901.604C471.755 896.595 510.361 882.597 513.536 877.245C513.843 876.764 513.945 876.216 512.717 875.529C503.91 870.52 455.472 872.099 436.732 879.509Z" fill="#848484"/>
<path d="M85.358 48.8589C101.917 41.326 96.3974 17.3702 90.9799 2.2367H87.8112C89.2422 6.03705 90.5711 10.4482 91.6954 15.0629C94.3531 26.8032 95.1708 41.9368 83.6203 47.2301C70.1277 53.3378 42.7336 45.3299 2.05127 23.4101V26.0567C33.4318 42.819 57.2484 51.2341 73.1942 51.2341C77.8962 51.1662 81.9848 50.4197 85.358 48.8589Z" fill="#848484"/>
<path fill-rule="evenodd" clip-rule="evenodd" d="M697.174 495.629C681.927 495.629 665.641 494.633 654.024 491.777C637.428 487.727 636.598 481.684 638.88 477.301C641.266 472.586 646.141 469.133 653.505 467.074C666.679 463.422 687.424 464.285 715.119 469.731C735.553 473.781 752.461 478.895 752.668 478.961C761.381 481.75 761.692 484.406 760.551 486.133C757.128 491.113 735.553 494.035 716.571 495.098C710.659 495.43 704.02 495.629 697.174 495.629ZM654.751 468.867C648.216 470.66 643.859 473.715 641.785 477.898C639.192 483.078 643.652 487.129 655.269 489.918C668.961 493.238 692.403 494.434 716.364 493.105C738.458 491.844 755.469 488.656 757.751 485.336C758.892 483.609 754.847 481.883 751.32 480.754C750.283 480.422 705.265 466.875 672.903 466.875C666.16 466.875 659.937 467.406 654.751 468.867Z" fill="#848484"/>
<path d="M1254.38 882.398C1200.06 875.925 1193.58 851.718 1185.35 821.038C1176.09 786.784 1164.67 744.168 1081.53 710.184C1039.86 693.192 999.945 682.538 959.409 677.616C923.193 673.233 887.183 673.503 849.527 678.492C779.564 687.798 713.512 712.612 649.517 736.549C589.638 759.003 527.7 782.266 461.03 793.729C425.226 799.932 391.068 802.225 356.602 800.876C317.917 799.326 279.849 793.189 240.341 782.064C171.305 762.644 102.68 755.901 36.4215 761.97C24.1781 763.116 12.0376 764.667 0 766.69V768.78C12.2434 766.757 24.4868 765.139 36.9359 763.993C102.68 757.924 170.687 764.667 239.209 783.884C287.874 797.572 332.938 803.236 375.43 803.236C478.007 803.236 565.562 770.398 651.06 738.37C717.73 713.353 780.593 689.753 850.144 680.515C887.388 675.526 922.987 675.256 958.791 679.639C999.019 684.494 1038.63 695.08 1079.89 711.937C1116.41 726.839 1161.89 745.382 1182.36 821.375C1186.58 837.221 1190.28 850.909 1200.06 861.9C1210.86 874.104 1228.04 881.252 1253.87 884.354C1330.31 893.524 1375.79 908.021 1396.88 930.003C1401.92 935.195 1405.62 940.859 1408.09 946.861H1411.28C1408.71 940.455 1404.9 934.521 1399.45 928.924C1377.84 906.47 1331.75 891.636 1254.38 882.398Z" fill="#848484"/>
<path d="M1194.53 904.532C1129.83 898.196 1123.76 885.457 1110.59 857.688C1099.07 833.49 1081.68 796.824 1013.69 743.643C922.235 672.063 825.228 716.817 712.893 768.65C599.015 821.223 469.913 880.739 312.315 837.871C251.93 821.425 191.031 813.337 131.16 813.674C86.617 813.944 42.4855 818.932 0 828.503V830.659C42.4855 821.021 86.5141 816.033 131.16 815.764C190.619 815.359 251.107 823.515 311.081 839.826C382.061 859.171 453.762 859.508 530.092 840.972C596.855 824.728 656.726 797.093 714.642 770.402C770.192 744.789 822.656 720.592 871.725 711.965C925.938 702.393 970.275 712.908 1011.32 745.059C1078.91 797.969 1096.19 834.367 1107.61 858.429C1120.77 886.199 1127.46 900.151 1194.12 906.689C1233.11 910.531 1257.49 919.967 1266.65 934.728C1268.91 938.435 1270.25 942.479 1270.76 946.86H1273.85C1273.43 942.21 1271.99 937.896 1269.53 933.987C1259.86 918.349 1234.65 908.509 1194.53 904.532Z" fill="#848484"/>
<path d="M874.805 813.45C846.216 800.997 807.858 801.401 760.861 814.863C723.53 825.498 680.647 844.345 633.342 870.731C585.008 897.791 541.816 927.408 514.872 946.861H518.986C545.929 927.408 588.093 898.598 635.295 872.212C682.395 845.894 724.97 827.181 761.992 816.613C807.961 803.487 845.291 802.949 872.954 815.065C937.228 843.134 971.37 890.521 1001.5 932.321C1005.1 937.235 1008.49 942.081 1011.99 946.793H1015.38C1011.68 941.812 1007.98 936.697 1004.28 931.446C974.147 889.444 939.799 841.788 874.805 813.45Z" fill="#848484"/>
<path d="M791.031 885.359C777.711 879.109 760.497 879.245 739.902 885.767C723.712 890.93 705.371 900.034 685.39 912.875C666.332 925.172 649.22 938.556 637.949 948H641.945C673.914 921.571 747.177 867.287 789.187 886.99C816.34 899.762 832.222 925.104 845.952 948H849.231C835.296 924.696 819.209 898.607 791.031 885.359Z" fill="#848484"/>
<path d="M285.735 883.149C259.292 878.718 231.922 874.153 207.331 868.715C146.315 855.086 75.6268 866.566 27.061 878.584C17.4919 880.933 8.43727 883.417 0 885.901V888.117C8.74595 885.566 18.2122 882.948 28.1928 880.464C76.2441 868.581 146.212 857.235 206.302 870.662C230.893 876.167 258.366 880.732 284.912 885.163C344.591 895.099 400.976 904.498 404.886 921.55C406.532 928.734 398.918 937.126 381.838 946.86H386.365C402.52 937.126 409.619 928.667 407.973 921.215C403.651 902.82 349.015 893.689 285.735 883.149Z" fill="#848484"/>
<path d="M246.171 913.181C225.845 910.86 201.105 910.996 178.315 913.591C136.123 918.37 53.5869 933.663 0 943.972V946.088C53.5869 935.779 136.636 920.418 178.931 915.571C201.413 913.045 225.743 912.84 245.761 915.161C274.71 918.506 284.873 925.538 288.363 930.932C291.546 935.779 290.725 941.514 286.002 948H289.493C294.01 941.309 294.523 935.301 291.135 930.113C284.257 919.599 262.905 915.093 246.171 913.181Z" fill="#848484"/>
<path d="M126.339 540.233C172.804 560.747 203.13 590.169 229.755 616.148C259.978 645.57 286.191 671.01 327.105 675.126C330.909 675.531 334.815 675.666 338.721 675.666C370.28 675.666 407.802 663.722 455.398 638.552C491.069 619.657 520.777 602.517 546.991 587.335C602.297 555.282 642.285 532.136 686.489 524.646C731.617 516.953 781.166 525.051 857.443 552.515C919.739 574.986 994.062 590.439 1061.19 594.892C1092.44 596.984 1120.81 596.579 1143.33 593.61C1167.07 590.506 1183.73 584.905 1192.67 576.875C1204.9 565.876 1207.88 545.429 1152.27 510.407C1085.76 468.502 1010.1 463.441 930.018 458.11C876.974 454.601 822.08 450.89 766.672 436.247C703.964 419.714 649.584 390.968 600.344 348.523C563.953 317.145 521.497 302.299 477.396 305.606C447.379 307.833 417.876 318.224 389.709 336.377C361.44 354.731 335.946 380.036 314.152 411.617C297.91 435.032 280.023 447.044 259.155 448.258C214.027 450.89 161.805 401.09 111.434 352.909C86.248 328.819 60.2399 303.986 35.4655 286.171C22.6157 276.792 10.8966 269.976 0 265.455V267.952C34.6431 282.932 72.2674 318.832 108.966 353.921C134.255 378.079 160.469 403.114 185.654 421.334C212.587 440.768 235.614 450.283 255.866 450.283C257.099 450.283 258.333 450.215 259.566 450.148C281.565 448.866 300.377 436.517 317.031 412.359C338.721 380.981 363.907 355.878 391.971 337.726C419.624 319.844 448.51 309.655 477.808 307.495C520.675 304.324 562.308 318.899 597.979 349.67C647.528 392.452 702.422 421.334 765.541 438.001C821.36 452.779 876.46 456.423 929.71 460C1009.28 465.331 1084.42 470.324 1150.21 511.757C1204.28 545.834 1201.82 565.269 1190.3 575.593C1173.45 590.641 1125.34 597.052 1061.6 592.8C994.884 588.347 920.972 572.961 858.985 550.625C781.989 522.891 731.823 514.794 685.769 522.621C640.846 530.246 600.652 553.527 545.038 585.782C518.824 600.965 489.218 618.105 453.547 636.932C400.709 664.869 360.72 676.341 327.619 673.034C288.042 669.12 262.239 644.018 232.325 614.934C205.494 588.819 175.066 559.263 128.087 538.479C89.1263 521.272 52.0161 512.634 17.373 512.634C11.5134 512.634 5.75672 512.904 0 513.376V515.401C38.9606 512.094 81.3136 520.327 126.339 540.233Z" fill="#848484"/>
<path d="M57.6927 739.387C105.307 739.86 158.578 746.14 205.575 751.61C272.935 759.511 326 765.723 332.581 751.407C342.454 729.933 310.368 712.173 257.098 682.797C218.944 661.728 171.33 635.527 120.424 597.845C82.1684 569.618 44.0151 556.788 7.19873 559.894C4.93627 560.097 2.57098 560.367 0 560.704V562.798C2.46814 562.46 5.03911 562.122 7.61009 561.92C43.3981 558.949 80.523 571.509 118.162 599.264C169.273 637.08 216.887 663.349 255.144 684.486C307.386 713.321 338.957 730.743 329.702 750.934C323.943 763.495 269.335 757.079 206.192 749.719C138.01 741.683 57.8984 732.296 0 740.467V742.561C16.4542 740.197 35.5823 739.184 57.6927 739.387Z" fill="#848484"/>
<path d="M192.914 728.082C219.58 728.082 234.553 724.904 237.425 718.482C243.784 704.488 190.76 679.273 158.454 665.482C112.815 645.945 58.4589 627.558 29.2294 621.676C19.4863 619.716 9.64058 618.364 0 617.553V619.581C9.33291 620.392 18.8709 621.744 28.3064 623.637C57.3307 629.45 111.38 647.703 156.711 667.172C209.529 689.819 238.553 708.747 234.348 717.874C230.246 726.797 193.735 728.42 131.481 722.471C81.1245 717.738 28.5115 709.423 0.102559 704.15V706.246C28.8192 711.587 81.1245 719.766 131.173 724.566C156.095 726.932 176.71 728.082 192.914 728.082Z" fill="#848484"/>
<path d="M61.1537 691.618C73.5288 691.618 80.4383 690.056 81.7789 686.931C84.6664 680.682 64.0412 670.289 46.2004 662.681C30.8347 656.093 13.3033 649.843 0 646.039V648.281C12.9939 652.085 29.8034 658.13 44.5504 664.448C67.4444 674.229 80.5414 682.652 78.7883 686.388C76.0039 692.433 34.6503 689.037 0 683.943V685.98C10.4157 687.475 22.069 688.969 33.4128 690.056C44.7567 691.075 53.9349 691.618 61.1537 691.618Z" fill="#848484"/>
<path fill-rule="evenodd" clip-rule="evenodd" d="M349.568 638.063C346.588 638.063 343.71 637.861 340.935 637.388C315.757 633.337 295.718 621.591 282.974 603.566C270.128 585.203 265.812 561.507 270.642 534.975C275.061 511.077 287.907 487.381 308.05 466.453C379.679 391.854 439.182 350.943 484.913 344.867C499.609 342.91 513.072 344.597 524.684 349.931C568.236 369.804 596.645 389.151 621.699 406.213L622.622 406.842L622.846 406.994C661.586 433.386 692.222 454.257 759.303 466.318C801.746 473.946 821.786 480.967 820.45 487.853C819.422 493.187 805.035 497.44 777.596 500.545C750.979 503.516 712.544 505.339 666.504 505.744C631.768 506.081 595.697 514.925 556.131 532.95C521.601 548.747 488.921 569.338 460.043 587.566C417.395 614.502 380.09 638.063 349.568 638.063ZM310.722 467.533C290.888 488.191 278.144 511.617 273.828 535.245C269.101 561.372 273.314 584.73 285.955 602.755C298.184 620.24 317.504 631.582 341.758 635.498C344.327 635.903 346.999 636.105 349.671 636.105C378.856 636.105 415.748 612.816 457.881 586.218L457.885 586.215C486.763 567.92 519.546 547.262 554.384 531.397C594.464 513.17 631.152 504.123 666.504 503.786C712.441 503.381 750.671 501.558 777.082 498.588C811.098 494.739 816.956 490.081 817.47 487.651C818.908 479.955 776.774 471.516 758.584 468.276C690.551 455.989 659.618 434.926 620.567 408.259L620.144 407.972C595.07 390.894 566.677 371.557 523.04 351.618C515.024 347.973 506.186 346.15 496.526 346.15C493.032 346.15 489.332 346.42 485.633 346.893C440.826 352.834 381.94 393.407 310.722 467.533Z" fill="#848484"/>
<path fill-rule="evenodd" clip-rule="evenodd" d="M1075.93 563.622C1027.62 559.016 972.517 551.361 939.968 546.145C885.582 537.474 862.304 529.819 859.728 519.657C857.359 510.512 872.398 499.47 906.904 484.906C925.754 476.98 950.269 475.286 980.037 480.028C1003.62 483.754 1030.51 491.477 1059.97 502.993C1109 522.164 1149.07 545.603 1151.02 546.754C1165.44 553.461 1171.21 558.474 1168.64 562.2C1166.16 565.654 1156.28 567.416 1138.56 567.416C1123.42 567.416 1102.61 566.129 1075.93 563.622ZM949.033 479.418C933.376 479.418 919.883 481.857 908.552 486.599C875.694 500.486 860.759 511.19 862.716 519.183C865.6 530.632 903.711 538.219 940.586 544.112C1029.99 558.406 1158.03 572.361 1165.65 561.319C1166.68 559.829 1165.96 556.171 1149.07 548.312L1148.96 548.245C1148.94 548.233 1148.78 548.143 1148.5 547.98C1143.87 545.307 1105.21 523.011 1058.32 504.686C1029.17 493.306 1002.59 485.651 979.316 481.993C968.5 480.299 958.406 479.418 949.033 479.418Z" fill="#848484"/>
<path fill-rule="evenodd" clip-rule="evenodd" d="M1036.44 538.653C1018.2 536.901 997.303 534.004 985.008 532.05C967.283 529.219 955.295 526.322 953.963 521.47C952.939 517.696 958.574 513.451 972.201 507.723C985.315 502.13 1005.19 504.422 1031.01 514.529C1049.35 521.672 1064.41 530.432 1065.54 531.106C1069.64 532.993 1074.04 535.486 1072.51 537.71C1071.69 538.923 1069.33 540.068 1060.31 540.068C1054.99 540.068 1047.4 539.664 1036.44 538.653ZM988.697 506.847C983.266 506.847 978.246 507.656 973.943 509.475C962.058 514.462 956.32 518.438 956.935 521.133C957.959 525.109 971.996 527.872 985.623 530.028C1031.42 537.373 1067.69 539.664 1069.64 536.901C1069.64 536.901 1070.25 535.89 1063.7 532.791L1063.59 532.723C1063.57 532.714 1063.5 532.671 1063.37 532.599C1059.98 530.649 1018.53 506.847 988.697 506.847Z" fill="#848484"/>
<path d="M1277.71 167.723C1252.71 173.729 1237.89 189.386 1217.2 211.117C1207.22 221.645 1195.8 233.59 1181.5 246.278C1134.98 287.242 1088.16 272.193 1010.57 247.29C970.534 234.4 920.624 218.406 858.982 206.798C769.35 189.926 709.56 190.804 676.218 209.497C645.655 226.639 635.981 258.29 645.655 309.108C654.093 353.177 704.518 387.123 795.488 410.068C881.21 431.664 982.677 437.805 1035.47 439.627C1127.26 442.664 1207.84 451.977 1275.14 467.162C1328.86 479.31 1374.24 495.236 1409.95 514.538C1421.68 520.881 1431.66 527.158 1440 533.232V530.262C1432.08 524.728 1422.92 518.924 1412.21 513.12C1376.2 493.617 1330.51 477.555 1276.38 465.34C1208.77 450.088 1127.78 440.775 1035.67 437.67C982.986 435.916 881.931 429.774 796.62 408.246C706.782 385.638 656.974 352.232 648.742 308.973C639.171 258.898 648.536 227.854 678.276 211.185C710.795 192.963 769.658 192.153 858.159 208.89C919.595 220.498 969.299 236.425 1009.23 249.247C1048.64 261.935 1079.82 271.923 1107.61 273.677C1137.76 275.567 1161.33 267.536 1183.97 247.627C1198.37 234.94 1209.79 222.927 1219.88 212.332C1240.15 190.939 1254.87 175.484 1278.85 169.748C1304.16 163.674 1338.43 168.803 1393.59 186.889C1410.36 192.423 1425.8 198.497 1440 204.908V202.344C1426.21 196.135 1411.19 190.331 1394.93 185C1338.84 166.643 1303.85 161.447 1277.71 167.723Z" fill="#848484"/>
<path d="M1338.74 231.294C1313.45 231.767 1292.06 239.67 1275.2 254.801C1259.89 268.513 1249.09 281.009 1239.43 291.951C1208.38 327.414 1194.19 343.625 1099.1 319.105C1071.34 311.945 1038.65 301.543 1004.01 290.533C908.603 260.137 800.452 225.688 743.19 242.439C725.919 247.438 714.096 257.03 708.031 270.809C699.806 289.452 702.993 306.339 717.694 320.997C739.078 342.274 784.106 359.161 855.247 372.67C910.556 383.207 981.8 391.651 1079.26 399.351C1174.97 406.916 1274.07 427.045 1358.17 455.955C1389.52 466.763 1417.38 478.381 1440 489.932V487.23C1417.69 476.017 1390.55 464.804 1359.5 454.132C1275.1 425.086 1175.59 404.89 1079.46 397.325C982.108 389.624 911.07 381.181 855.967 370.644C785.545 357.269 741.134 340.585 720.162 319.781C705.975 305.663 702.89 289.385 710.806 271.282C716.769 257.908 727.666 249.059 744.218 244.263C800.246 227.917 907.677 262.163 1002.46 292.357C1037.11 303.434 1069.9 313.837 1097.76 320.997C1144.75 333.087 1173.63 335.789 1194.4 329.913C1214.45 324.239 1225.96 311.135 1241.79 292.965C1251.35 282.022 1262.15 269.661 1277.36 256.016C1293.61 241.426 1314.17 233.793 1338.53 233.321C1372.87 232.713 1410.19 246.492 1439.9 261.15V258.583C1393.22 235.617 1359.5 230.889 1338.74 231.294Z" fill="#848484"/>
<path d="M1334 282.995C1315.93 285.026 1302.58 294.369 1294.26 310.754C1269.4 359.57 1211.27 356.253 1172.75 354.086C1151.8 352.867 1136.6 352.055 1134.75 359.976C1132.39 369.997 1140.71 377.715 1161.25 384.147C1179.53 389.902 1205.82 394.371 1236.23 399.449C1299.91 410.147 1381.46 423.891 1439.9 459.166V456.39C1381.15 421.724 1300.21 408.115 1236.94 397.486C1176.55 387.33 1133 380.017 1137.73 360.247C1139.06 354.492 1151.18 354.898 1172.44 356.117C1192.16 357.2 1216.61 358.622 1239.72 353.477C1267.04 347.383 1285.83 333.639 1297.13 311.431C1305.04 295.859 1317.67 286.922 1334.52 285.026C1366.26 281.37 1408.06 302.426 1440 322.603V319.759C1438.36 318.676 1436.61 317.66 1434.86 316.577C1393.37 291.39 1359.48 280.083 1334 282.995Z" fill="#848484"/>
<path d="M1377.28 335.06C1361.58 331.262 1348.32 332.008 1338.12 337.366C1329.76 341.707 1326.19 347.879 1327.41 355.679C1331.8 382.673 1393.7 422.418 1440 440.934V438.492C1419.5 430.15 1396.66 417.942 1377.08 404.716C1349.14 385.793 1332.51 368.294 1330.37 355.34C1329.25 348.354 1332.41 342.792 1339.96 338.858C1367.39 324.547 1412.57 349.642 1440 368.226V365.31C1433.68 361.037 1426.44 356.56 1418.79 352.288C1403.59 343.877 1389.62 338.044 1377.28 335.06Z" fill="#848484"/>
<path fill-rule="evenodd" clip-rule="evenodd" d="M1084.77 356.563C1085.13 356.729 1085.32 356.822 1085.36 356.837C1097.59 362.875 1101.9 367.828 1098.2 371.56C1094.09 375.563 1080.83 377.124 1063.36 377.124C1039.41 377.124 1007.35 374.206 979.185 370.474C910.63 361.451 845.262 346.117 804.355 329.494C758.309 310.767 742.686 290.481 759.234 270.804C763.654 265.512 771.054 262.12 781.126 260.627C813.605 255.878 874.76 270.601 962.74 304.525C1024.57 328.27 1078.58 353.653 1084.77 356.563ZM1057.5 374.952C1085.97 375.427 1093.58 372.238 1095.53 370.339C1098.92 367.082 1090.91 362.061 1083.51 358.465C1080.83 357.176 879.385 261.78 794.18 261.78C789.657 261.78 785.546 262.052 781.743 262.595C772.596 263.952 765.915 267.005 761.907 271.754C753.684 281.525 753.787 291.43 762.318 301.269C770.026 310.225 784.724 319.113 805.897 327.73C846.495 344.217 911.452 359.483 979.699 368.439C1008.99 372.306 1036.64 374.613 1057.5 374.952Z" fill="#848484"/>
<path fill-rule="evenodd" clip-rule="evenodd" d="M978.754 338.792C979.499 339.091 979.913 339.258 979.958 339.273C981.503 340.008 986.341 342.347 983.974 344.553C982.635 345.89 978.517 346.358 972.958 346.358C957.721 346.358 931.881 342.481 925.292 341.478C891.009 336.131 859.198 328.445 840.255 320.892C821.209 313.272 814.62 305.852 820.591 298.834C822.033 297.163 824.503 296.027 827.798 295.492C841.181 293.286 870.934 299.971 916.129 315.411C945.855 325.565 972.819 336.406 978.754 338.792ZM926.013 339.473C961.016 344.887 979.753 345.021 981.503 343.35C981.709 343.283 981.4 342.481 978.106 340.877C975.223 339.674 870.008 297.03 833.667 297.03C831.711 297.03 830.063 297.163 828.519 297.431C825.945 297.832 824.298 298.634 823.269 299.77C818.224 305.652 824.401 312.135 841.8 319.087C860.434 326.573 891.937 334.193 926.013 339.473Z" fill="#848484"/>
<path fill-rule="evenodd" clip-rule="evenodd" d="M371.807 587.365C361.55 590.198 353.138 591.345 346.265 591.345C332.315 591.345 324.724 586.623 320.416 581.631C293.028 549.723 354.882 446.984 438.996 406.913C464.127 394.973 486.694 390.116 505.979 392.545C521.878 394.569 535.521 401.382 546.6 412.85C557.473 424.048 562.704 437 561.986 450.357C561.268 463.646 554.601 476.396 542.804 487.189L539.624 490.09L539.439 490.259C500.312 526.027 459.885 562.983 371.807 587.365ZM440.842 408.667C402.786 426.814 365.345 460.34 340.726 498.32C317.646 533.87 310.774 566.25 323.083 580.686C331.392 590.333 347.291 591.952 370.576 585.476C457.973 561.258 498.183 524.493 537.06 488.875L540.24 485.975C551.729 475.519 558.191 463.174 558.909 450.289C559.627 437.337 554.498 424.79 544.035 413.997C533.47 403.068 520.442 396.525 505.466 394.636C502.389 394.231 499.209 394.029 496.029 394.029C479.719 394.029 461.255 398.953 440.842 408.667Z" fill="#848484"/>
<path fill-rule="evenodd" clip-rule="evenodd" d="M401.296 540.986C394.919 542.743 389.673 543.487 385.456 543.487C377.331 543.487 372.908 540.85 370.543 538.079C363.446 529.832 367.766 512.392 381.754 492.586C396.359 472.037 418.266 453.38 440.483 442.835C455.19 435.872 468.356 433.033 479.772 434.453C489.132 435.602 497.257 439.59 503.737 446.35C516.593 459.734 515.771 476.769 501.474 489.815C478.744 510.567 453.956 526.385 401.296 540.986ZM442.334 444.525C420.632 454.867 399.033 473.186 384.634 493.465C371.16 512.325 366.737 529.494 373.32 537.133C377.64 542.202 386.691 542.878 400.164 539.161C452.208 524.762 476.584 509.147 499.006 488.666C512.582 476.295 513.405 460.14 501.166 447.499C495.097 441.28 487.795 437.562 479.258 436.481C477.51 436.278 475.761 436.143 473.91 436.143C464.55 436.143 454.059 438.982 442.334 444.525Z" fill="#848484"/>
<path d="M1394.53 546.26C1368.29 536.056 1342.16 533.893 1321.07 540.178C1289.69 549.436 1275.29 575.384 1287.63 600.522C1290.82 607.009 1288.87 612.213 1281.87 616.267C1259.75 628.971 1188.25 630.052 1085.57 619.173C996.885 609.78 901.307 592.819 853.056 577.817C813.034 565.383 780.729 563.356 756.963 571.668C735.873 579.033 721.983 594.846 716.736 617.281C708.917 650.865 601.405 682.896 514.984 708.574C453.666 726.819 405.208 741.213 398.727 753.038C397.595 755.066 397.698 756.958 399.035 758.715C404.797 766.553 418.892 767.905 444.921 763.107C468.893 758.647 502.844 749.119 545.746 737.023C612.311 718.237 703.567 692.491 820.648 667.962C916.637 647.892 1000.07 650.19 1068.59 674.787C1105.73 688.167 1137.83 707.899 1163.97 733.442C1186.29 755.336 1204.09 781.487 1215.3 809.126C1223.54 829.398 1241.54 846.292 1268.91 859.334C1291.03 869.875 1319.42 877.984 1353.17 883.458C1379.51 887.715 1409.44 890.283 1440 891.026V888.999C1409.65 888.256 1380.02 885.688 1353.89 881.431C1320.55 876.092 1292.57 868.051 1270.76 857.644C1244.01 844.873 1226.42 828.384 1218.29 808.517C1206.97 780.609 1189.07 754.255 1166.54 732.225C1140.1 706.344 1107.69 686.41 1070.03 672.895C1000.79 647.96 916.534 645.662 819.722 665.867C702.436 690.397 611.179 716.143 544.511 734.996C459.427 758.985 412.513 772.23 401.813 757.701C400.887 756.417 400.784 755.066 401.607 753.579C407.678 742.564 457.987 727.563 516.321 710.264C559.738 697.357 609.018 682.693 647.805 667.151C692.662 649.176 716.222 632.89 719.823 617.416C724.864 595.657 738.239 580.385 758.404 573.289C781.347 565.248 812.726 567.343 851.821 579.506C923.633 601.806 1098.94 628.431 1205.43 628.431C1242.16 628.431 1270.76 625.255 1284.03 617.619C1292.05 613.023 1294.32 607.009 1290.72 599.711C1278.89 575.587 1292.57 550.652 1322.51 541.8C1360.99 530.447 1403.58 547.611 1439.9 574.506V571.059C1424.88 560.585 1409.75 552.206 1394.53 546.26Z" fill="#848484"/>
<path d="M1382.33 578.88C1371.63 576.72 1361.56 577.463 1352.41 581.04C1325.58 591.638 1331.44 611.079 1336.58 628.292C1340.17 640.24 1343.57 651.514 1335.24 657.791C1329.48 662.112 1318.28 663.934 1301.11 663.259C1261.94 661.774 1224.31 656.306 1194.08 651.919C1153.89 646.113 1124.79 641.861 1114.2 649.623C1111.02 651.986 1109.47 654.619 1109.78 657.521C1110.61 666.702 1129.11 677.435 1152.65 691.003C1186.48 710.579 1228.63 735.015 1243.12 767.822C1257.31 799.818 1276.43 831.477 1320.64 846.125C1337.6 851.728 1357.45 854.563 1380.37 854.563C1398.26 854.563 1418.1 852.876 1439.9 849.433V847.34C1390.55 855.171 1351.69 854.158 1321.98 844.303C1278.9 829.992 1259.98 798.805 1246 767.214C1231.2 733.867 1188.74 709.229 1154.61 689.45C1131.68 676.152 1113.59 665.689 1112.76 657.319C1112.56 654.956 1113.79 652.864 1116.47 650.906C1125.82 644.021 1155.63 648.341 1193.47 653.809C1223.8 658.196 1261.63 663.664 1301 665.149C1319.2 665.824 1331.13 663.799 1337.6 658.939C1346.86 651.919 1343.36 640.173 1339.66 627.752C1334.42 610.404 1329.07 592.516 1354.05 582.66C1362.38 579.353 1371.63 578.745 1381.5 580.635C1398.88 584.078 1418.92 595.891 1440 614.859V611.349C1422.93 596.566 1402.58 582.863 1382.33 578.88Z" fill="#848484"/>
<path d="M1402.54 645.913C1387.59 649.089 1377.15 659.698 1376.64 672.403C1376.33 680.377 1373.87 685.31 1368.86 688.35C1358.01 694.905 1333.13 693.892 1287.89 692.067L1282.57 691.864C1265.06 691.189 1255.54 692.675 1252.37 696.527C1247.56 702.541 1259.33 712.745 1275.71 726.936C1290.35 739.573 1308.57 755.25 1318.8 772.009C1326.68 784.848 1340.09 793.7 1358.52 798.363C1369.37 801.066 1381.24 802.147 1393.12 802.147C1409.91 802.147 1426.59 800.052 1440 797.687V795.525C1415.43 799.917 1384.62 802.688 1359.65 796.471C1342.04 792.079 1329.24 783.564 1321.67 771.265C1311.23 754.236 1292.9 738.424 1278.16 725.72C1263.63 713.218 1251.14 702.406 1255.03 697.541C1257.49 694.5 1266.39 693.351 1282.26 693.959L1287.58 694.162C1335.08 696.054 1359.03 697 1370.8 689.905C1376.54 686.458 1379.3 681.052 1379.61 672.47C1380.12 660.645 1389.64 650.778 1403.35 647.873C1414.31 645.575 1426.9 647.67 1440 653.684V651.116C1423.21 643.751 1410.21 644.291 1402.54 645.913Z" fill="#848484"/>
<path d="M1376.42 715.886C1366.75 723.08 1363.77 732.175 1368.09 741.541C1372.82 751.721 1390.31 757.49 1420.04 758.644C1423.95 758.779 1427.86 758.847 1431.56 758.847C1434.44 758.847 1437.33 758.779 1440 758.712V756.675C1415.21 757.286 1377.76 755.657 1370.97 740.862C1366.96 732.175 1369.73 723.759 1378.58 717.176C1390.93 708.013 1413.05 703.33 1439.9 703.941V701.905C1412.33 701.43 1389.38 706.317 1376.42 715.886Z" fill="#848484"/>
<path d="M113.554 508.124C152.575 518.602 189.841 528.674 215.029 528.674C221.842 528.674 227.727 527.93 232.578 526.308C239.392 524.009 243.727 519.886 245.585 514.14C250.024 500.621 228.036 487.575 194.693 467.837C161.659 448.302 116.444 421.602 76.4938 381.585C49.3442 354.479 23.8462 337.039 0.10323 329.266V331.496C22.9172 339.27 47.5893 356.304 73.8098 382.666C114.07 422.954 159.388 449.722 192.525 469.324C225.042 488.589 246.618 501.297 242.488 513.667C240.734 518.872 237.017 522.387 231.03 524.415C209.661 531.783 163.517 519.345 114.689 506.164C82.4812 497.512 49.1377 488.522 20.2332 484.466C13.007 483.452 6.19383 482.776 0 482.438V484.466C5.98737 484.804 12.5941 485.412 19.6138 486.426C48.3119 490.55 81.5521 499.472 113.554 508.124Z" fill="#848484"/>
<path d="M97.6023 471.7C108.22 471.7 114.958 469.953 117.715 466.526C124.453 457.925 104.136 441.529 57.1729 417.608C35.9372 406.857 13.8848 396.912 0 390.797V393.149C46.453 413.509 125.678 452.012 115.06 465.585C112.814 468.475 106.689 469.751 98.1128 469.751C75.5499 469.751 35.5289 461.285 0 452.281V454.431C7.65708 456.379 15.7225 458.328 23.8901 460.21C56.9687 467.87 81.6756 471.7 97.6023 471.7Z" fill="#848484"/>
<path fill-rule="evenodd" clip-rule="evenodd" d="M539.062 631.082C544.643 624.93 550.534 619.388 556.735 614.521C576.371 598.974 606.136 590.862 636.004 592.755C653.573 593.904 662.461 597.96 662.564 604.922C662.771 627.972 555.598 676.1 507.333 679.48C500.306 680.021 494.932 680.224 490.901 680.224C482.22 680.224 479.326 679.21 478.292 677.723C476.225 674.613 483.666 670.152 496.068 662.716L496.068 662.716C509.297 654.808 527.383 643.992 539.062 631.082ZM601.175 648.048C637.244 631.284 659.671 614.723 659.568 604.99C659.568 599.244 651.506 595.797 635.901 594.85C633.11 594.648 630.32 594.58 627.529 594.58C601.485 594.58 576.475 602.286 559.215 615.805C553.118 620.537 547.33 626.08 541.853 632.096C530.074 645.159 511.9 656.031 498.599 663.988L498.239 664.203L497.771 664.485C489.028 669.737 480.072 675.117 481.29 676.844C482.013 677.925 487.078 678.872 507.127 677.452C529.244 675.897 566.14 664.339 601.175 648.048Z" fill="#848484"/>
<path d="M100.382 268.519C123.499 296.491 148.261 325.274 172.406 346.287C199.017 369.326 222.134 380.542 243.197 380.542C243.403 380.542 243.608 380.542 243.814 380.542C264.774 380.339 283.268 369.259 300.323 346.827C336.181 299.734 378.615 270.952 423.103 263.722C453.516 258.79 484.75 263.655 515.882 278.316C539.822 289.6 556.877 293.316 567.768 289.735C583.899 284.465 584.824 264.803 585.851 242.101C586.981 217.17 588.214 188.86 610.921 175.888C621.504 169.874 635.683 167.645 654.279 168.996C702.98 172.645 749.318 167.78 788.259 155.078C825.247 142.984 853.913 124.538 871.071 101.701C887.407 80.0131 892.134 55.5546 884.942 31.0961C881.962 20.8938 876.928 10.8941 870.044 1.09722H866.55C890.593 34.4743 891.928 69.6081 868.4 100.823C851.549 123.255 823.397 141.362 787.026 153.254C748.599 165.821 702.775 170.55 654.69 166.969C635.477 165.55 620.065 167.983 608.969 174.334C585.235 187.847 584.002 216.629 582.769 241.966C581.844 263.114 580.92 283.113 566.432 287.843C556.569 291.086 540.644 287.37 517.629 276.56C485.675 261.56 453.619 256.56 422.281 261.628C376.868 269.06 333.715 298.18 297.549 345.814C281.007 367.502 263.438 378.177 243.814 378.38C243.608 378.38 243.403 378.38 243.197 378.38C198.503 378.38 149.494 323.585 103.053 267.371C74.5928 233.115 40.0705 209.468 0 196.9V199.13C38.8376 211.63 72.5379 234.872 100.382 268.519Z" fill="#848484"/>
<path d="M139.078 182.274C156.874 182.274 172.51 180.589 185.368 177.153C214.686 169.337 229.293 153.368 228.779 129.516C228.264 106.135 237.831 88.7514 257.993 76.421C307.678 45.8309 414.661 51.0865 528.022 56.7464C544.687 57.5549 561.968 58.4308 578.942 59.172C595.503 59.9132 610.728 60.2501 624.718 60.2501C688.599 60.2501 724.809 52.771 732.729 37.8802C738.284 27.3691 729.026 14.6344 714.213 2.2367H710.201C725.426 14.5671 735.095 27.1669 729.849 37.2738C720.797 54.3881 670.186 61.126 579.25 57.218C562.277 56.4768 544.995 55.6009 528.331 54.7924C414.353 49.1325 306.65 43.8096 255.936 75.0061C235.156 87.8081 225.281 105.664 225.795 129.651C226.31 152.559 212.32 167.989 184.34 175.401C148.336 184.969 89.8039 180.589 23.5568 163.407C15.636 161.386 7.81798 159.163 0 156.872V159.095C7.4065 161.319 14.9159 163.407 22.4252 165.294C65.8356 176.479 106.16 182.274 139.078 182.274Z" fill="#848484"/>
<path d="M80.2922 118.328C117.303 116.843 148.659 104.087 173.641 80.3959L177.753 76.4811C208.081 47.7283 223.297 33.2844 245.811 27.2773C268.326 21.2703 298.86 23.4301 359.721 27.8173C367.123 28.3572 375.04 28.8972 383.367 29.5047C455.537 34.5668 507.763 36.3217 543.026 34.7018C577.055 33.1494 596.383 28.6272 603.785 20.4603C608.308 15.4657 608.103 9.39116 604.402 2.2367H601.215C604.916 9.12118 605.327 14.8583 601.112 19.4479C594.327 26.8049 575.307 31.192 542.82 32.6769C507.661 34.2968 455.64 32.6094 383.675 27.4798C375.348 26.8724 367.432 26.3324 360.03 25.7924C298.654 21.3378 267.915 19.1104 244.578 25.3875C221.24 31.6645 205.819 46.2434 175.183 75.3337L171.071 79.2484C146.603 102.399 116.069 114.886 80.0866 116.303C61.5813 117.046 34.7487 114.953 0 104.289V106.516C30.5337 115.763 55.0017 118.463 73.1985 118.463C75.7687 118.463 78.1332 118.396 80.2922 118.328Z" fill="#848484"/>
<path d="M122.004 70.3326C136.664 65.8376 146.712 58.1894 151.735 47.5892C159.22 32.1586 160.86 16.5939 159.63 2.2367H156.554C157.784 16.3926 156.144 31.7561 148.762 46.9854C143.944 57.0488 134.409 64.2945 120.568 68.5212C87.658 78.5846 36.4985 70.3326 0 62.0806V64.2274C24.5032 69.7288 55.4655 75.163 83.352 75.163C97.3978 75.163 110.726 73.7541 122.004 70.3326Z" fill="#848484"/>
<path d="M757.855 52.0533C737.466 78.4467 647.153 74.8691 646.124 74.8015C595.561 74.8015 548.603 72.439 507.205 70.2789C445.624 67.1063 392.384 64.4062 353.046 71.0889C332.245 74.599 316.077 80.6067 303.72 89.382C290.332 98.8323 281.27 111.59 275.915 128.263C258.1 184.02 211.451 190.703 173.864 196.035C151.208 199.276 131.642 202.043 125.155 215.274C119.285 227.356 126.081 251.387 142.661 276.498C160.373 303.431 184.47 324.29 207.126 332.255C214.437 334.82 221.749 336.103 228.648 336.103C241.829 336.103 254.29 331.512 265.206 322.535C281.785 308.899 295.275 294.049 308.354 279.671C332.76 252.805 353.767 229.652 386.411 224.454C406.492 221.281 429.868 225.196 457.673 236.604C494.539 251.657 520.078 256.382 535.833 251.05C555.399 244.435 557.356 223.981 559.416 202.246C562.196 173.085 565.079 142.911 610.802 144.261C621.306 144.531 631.398 144.734 641.181 144.734C740.04 144.734 804.196 129.411 831.897 99.0348C853.729 75.2066 848.168 46.4506 839.723 26.605C835.707 17.0872 830.661 8.71691 826.233 2.2367H822.835C827.366 8.71691 832.618 17.4247 836.737 27.2125C851.669 62.5161 840.856 85.1969 829.22 98.0223C799.356 130.693 725.829 145.611 610.905 142.304C588.97 141.696 574.347 147.771 566.212 160.934C559.107 172.342 557.665 187.53 556.326 202.246C554.37 223.374 552.413 243.287 534.392 249.362C519.666 254.357 495.157 249.632 459.217 234.984C430.589 223.306 406.492 219.256 385.588 222.631C351.708 228.032 330.288 251.522 305.573 278.793C292.598 293.104 279.108 307.887 262.631 321.387C246.566 334.55 228.339 337.588 208.361 330.567C186.324 322.805 162.639 302.351 145.235 275.823C129.274 251.522 122.271 227.492 127.832 216.016C133.805 203.866 151.62 201.301 174.275 198.128C193.224 195.428 214.643 192.39 233.797 182.805C255.938 171.735 270.663 154.049 278.696 128.736C288.685 97.3473 311.752 80.2017 353.561 73.114C371.068 70.1439 391.56 69.0639 414.319 69.0639C441.917 69.0639 473.119 70.6839 506.69 72.3715C548.191 74.464 595.149 76.8941 645.712 76.8941C645.712 76.8941 645.712 76.8941 645.815 76.8941C646.021 76.8941 669.294 77.9066 694.729 75.4766C729.33 72.2365 751.368 64.6762 760.43 53.0658C770.213 40.4429 763.931 23.4324 741.688 2.3042H737.981C760.636 23.1624 767.226 39.9029 757.855 52.0533Z" fill="#848484"/>
<path d="M764.143 75.6119C747.255 89.4735 696.177 95.2211 616.573 92.2459C556.124 90.0145 500.103 83.4556 499.588 83.388C499.279 83.3203 465.09 79.3309 426.576 84.267C403.817 87.1069 384.045 92.4487 367.671 100.157C347.179 109.759 332.04 123.012 322.772 139.511C304.854 171.494 284.773 193.334 261.293 206.317C240.903 217.609 221.028 220.584 202.492 222.68C175.408 225.723 166.243 237.083 163.36 246.076C157.593 263.657 171.495 287.391 193.121 296.925C198.991 299.494 204.964 300.779 210.73 300.779C216.085 300.779 221.337 299.697 226.28 297.466C246.567 288.405 267.369 270.959 289.407 252.567C331.32 217.474 374.674 181.231 418.234 199.42C424.619 202.057 430.798 204.694 436.668 207.264C468.592 220.99 493.925 231.876 509.886 226.737C519.361 223.695 524.715 215.648 526.672 201.313C530.688 171.697 538.103 149.383 561.273 136.806C577.75 127.813 601.229 124.5 633.153 126.528C722.539 132.276 781.444 121.862 808.322 95.6944C829.844 74.7329 826.137 47.483 819.237 28.2795C815.324 17.3931 809.969 7.79137 805.747 1.09722H802.452C806.674 7.72376 812.235 17.5283 816.251 28.7529C822.945 47.5506 826.549 74.1919 805.747 94.5449C779.59 120.037 721.613 130.112 633.462 124.5C600.714 122.403 576.514 125.919 559.317 135.251C535.425 148.301 527.702 171.021 523.583 201.178C521.729 214.566 516.889 222.342 508.548 224.979C494.131 229.577 469.518 219.029 438.419 205.641C432.446 203.071 426.267 200.434 419.882 197.797C399.183 189.142 376.837 191.306 351.607 204.424C329.569 215.783 307.943 233.905 287.038 251.418C265.207 269.742 244.508 286.985 224.633 295.91C212.996 301.117 202.08 298.48 194.872 295.302C174.173 286.173 160.888 263.386 166.346 246.549C169.127 238.165 177.674 227.549 203.007 224.709C221.955 222.545 242.242 219.502 263.25 207.872C287.141 194.619 307.531 172.508 325.656 140.187C334.718 124.026 349.444 111.111 369.319 101.78C385.281 94.2744 404.744 89.0678 426.988 86.2279C441.405 84.4022 455.204 83.7937 466.841 83.7937C485.789 83.7937 498.765 85.3489 498.971 85.3489C499.485 85.4165 555.712 91.9754 616.367 94.2068C698.133 97.2496 748.696 91.4345 766.512 76.829C784.121 62.4941 788.24 43.0878 778.354 20.774C774.956 13.1332 770.528 6.3714 766.615 1.16484H763.113C767.13 6.30378 771.867 13.336 775.368 21.3149C782.062 36.3937 785.46 58.0989 764.143 75.6119Z" fill="#848484"/>
<path fill-rule="evenodd" clip-rule="evenodd" d="M434.486 102.394C445.415 98.8699 457.569 98.1244 468.803 100.361C479.834 102.53 488.106 107.071 493.315 113.848C509.248 134.248 495.154 170.1 485.349 189.619C482.795 194.77 479.629 197.481 475.442 198.091L475.442 198.091C474.829 198.158 474.216 198.226 473.603 198.226C466.8 198.226 458.986 192.933 449.26 186.344L449.091 186.23C439.797 179.927 429.278 172.811 416.613 167.796C395.471 159.392 385.054 149.971 385.667 139.67C386.79 121.71 422.23 106.393 434.486 102.394ZM474.829 196.125C477.791 195.651 480.344 193.346 482.489 189.009C505.061 144.143 497.298 123.268 490.558 114.865C485.655 108.629 477.995 104.427 467.884 102.394C463.901 101.581 459.815 101.174 455.628 101.174C448.887 101.174 442.146 102.191 435.814 104.224C423.967 108.087 389.752 122.794 388.731 139.737C388.118 149.226 398.127 158.104 418.247 166.034C431.097 171.069 442.143 178.566 451.086 184.636L451.338 184.807L451.454 184.886C461.005 191.358 469.234 196.935 474.829 196.125Z" fill="#848484"/>
<path fill-rule="evenodd" clip-rule="evenodd" d="M440 134.372C443.54 133.219 447.485 132.947 451.127 133.694C454.667 134.44 457.398 135.933 459.219 138.24C464.277 144.755 459.927 155.952 456.893 162.06C456.387 163.213 455.375 164.774 453.15 165.114C452.846 165.181 452.644 165.181 452.341 165.181C449.836 165.181 447.43 163.517 444.239 161.309L444.147 161.245C441.416 159.345 438.28 157.174 434.537 155.681C427.76 152.966 424.422 149.845 424.624 146.384C425.003 139.898 438.083 135.08 439.812 134.443C439.928 134.401 439.993 134.377 440 134.372ZM452.442 163.078C452.745 163.078 453.352 162.535 453.959 161.381C456.286 156.699 461.141 145.162 456.589 139.123C455.173 137.358 453.15 136.205 450.317 135.662C449.205 135.458 447.991 135.322 446.878 135.322C444.956 135.322 443.135 135.594 441.315 136.205C438.583 137.155 427.962 141.566 427.659 146.52C427.456 149.098 430.289 151.609 436.054 153.916C440.101 155.545 443.54 157.92 446.271 159.82C446.409 159.913 446.548 160.006 446.69 160.102C448.84 161.548 451.398 163.269 452.442 163.078Z" fill="#848484"/>
<path d="M1257.31 122.489C1217.95 131.475 1190.65 157.687 1176.33 200.384C1169.73 220.11 1153.24 232.541 1127.38 237.338C1078.95 246.39 1001.47 225.583 947.374 188.899C903.995 159.579 886.582 127.354 899.565 100.533C911.62 75.672 915.02 48.6489 909.765 20.3422C908.632 14.3971 907.086 8.31689 905.232 2.2367H902.038C903.995 8.45201 905.541 14.5322 906.674 20.6124C911.929 48.6489 908.529 75.4017 896.68 99.9927C883.285 127.556 901.007 160.457 945.211 190.385C970.97 207.815 1003.32 222.475 1036.4 231.663C1059.89 238.216 1082.56 241.526 1102.55 241.526C1111.82 241.526 1120.48 240.783 1128.31 239.364C1154.89 234.433 1172.62 221.124 1179.42 200.856C1193.53 158.903 1220.01 133.231 1258.34 124.449C1312.95 111.95 1382.92 135.461 1440 162.686V160.187C1382.5 132.961 1312.54 109.924 1257.31 122.489Z" fill="#848484"/>
<path d="M1276.24 68.8598C1243.06 73.2473 1217.79 87.7599 1201.25 111.858C1178.34 145.203 1149.27 168.558 1114.75 181.383C1077.76 195.086 1044.89 192.791 1023.83 188.471C998.35 183.206 976.365 172.136 961.88 157.286C946.881 141.963 941.333 123.873 946.367 106.39C956.743 70.0748 960.647 35.042 958.181 2.2367H955.099C957.565 34.907 953.661 69.8048 943.388 105.985C938.251 124.008 943.901 142.57 959.311 158.298C974.208 173.553 996.809 184.893 1023.01 190.293C1034 192.588 1045.3 193.668 1056.6 193.668C1076.84 193.668 1097.28 190.091 1116.29 183.071C1151.42 170.043 1180.91 146.35 1204.12 112.6C1220.25 89.1099 1244.7 75.0698 1276.86 70.7498C1302.95 67.3072 1334.29 70.4123 1367.47 79.8623C1393.46 87.2199 1419.76 98.29 1440 110.373V107.673C1398.19 83.5074 1330.8 61.6372 1276.24 68.8598Z" fill="#848484"/>
<path d="M766.308 925.132C763.659 923.405 760.296 922.714 756.424 922.991C743.28 923.958 725.347 936.739 711.795 948H715.769C728.709 937.361 745.216 925.961 756.73 925.063C759.685 924.856 762.13 925.339 764.168 926.652C771.199 931.143 779.045 939.364 786.177 948H789.744C782.305 938.88 773.95 929.968 766.308 925.132Z" fill="#848484"/>
<path d="M1409.41 66.174C1374.29 64.0135 1331.85 55.1014 1292.92 41.5983C1247.81 25.9347 1210.11 49.2951 1166.54 76.3013C1133.38 96.8936 1095.78 120.186 1049.23 128.626C1032.85 131.597 1020.18 130.044 1011.43 124.17C981.664 103.983 1001.65 37.8849 1015.24 2.2367H1012.05C1007.93 13.1067 1003.19 26.6773 999.482 40.8556C988.049 84.9433 991.345 113.435 1009.27 125.588C1015.76 129.976 1024.1 132.137 1034.19 132.137C1039.14 132.137 1044.39 131.597 1050.16 130.584C1097.33 122.077 1135.33 98.5815 1168.71 77.7867C1211.45 51.3205 1248.32 28.4328 1291.48 43.4212C1331.24 57.2619 1373.05 66.0389 1409.1 68.1994C1420.33 68.8746 1430.63 68.8746 1440 68.1994V66.174C1430.83 66.8491 1420.53 66.8491 1409.41 66.174Z" fill="#848484"/>
<path d="M1057.51 90.9138C1059.15 91.0484 1060.69 91.1157 1062.34 91.1157C1089.65 91.1157 1120.14 71.4694 1136.46 59.2242C1158.12 43.0766 1179.17 22.0848 1193.85 2.2367H1190.46C1175.98 21.6138 1155.35 42.0674 1134.2 57.8786C1105.04 79.6778 1077.94 90.712 1057.92 88.8954C1049.61 88.1553 1044.17 85.6658 1041.29 81.4271C1030.51 65.2795 1059.67 27.7364 1082.56 2.30398H1078.97C1074.45 7.41738 1069.63 12.9345 1065.01 18.6534C1039.85 49.6702 1030.92 71.0657 1038.52 82.2345C1041.81 87.146 1048.17 90.0391 1057.51 90.9138Z" fill="#848484"/>
<path d="M1098.4 46.6088C1099.02 46.6762 1099.75 46.6762 1100.48 46.6762C1106.73 46.6762 1116.61 44.2522 1130.35 34.085C1140.55 26.6111 1150.34 16.4439 1156.06 7.55597C1157 6.07465 1158.04 4.25667 1158.97 2.30403H1155.75C1155.02 3.71801 1154.19 5.19933 1153.25 6.74798C1141.49 25.0624 1114.64 46.0029 1098.92 44.5215C1096 44.2522 1094.13 43.4442 1093.09 41.9629C1087.78 34.1523 1109.33 11.0573 1118.59 2.2367H1114.84C1108.18 8.76795 1083.93 33.3443 1090.28 42.7709C1091.63 44.9929 1094.44 46.2722 1098.4 46.6088Z" fill="#848484"/>
<path d="M1388.1 44.0911C1367.53 42.3904 1344.47 36.676 1319.45 27.084C1297.64 18.7165 1278.1 8.78442 1264.24 1.09722H1259.49C1273.65 9.05653 1294.43 19.873 1317.9 28.8528C1343.33 38.5808 1366.8 44.4312 1387.79 46.1319C1392.13 46.4721 1396.37 46.6762 1400.61 46.6762C1415.19 46.6762 1428.32 44.4993 1440 40.1455V37.7645C1425.01 43.5469 1407.74 45.7238 1388.1 44.0911Z" fill="#848484"/>
<path fill-rule="evenodd" clip-rule="evenodd" d="M778.257 607.465C797.846 599.842 831.793 599.638 879.176 606.92C913.123 612.161 942.045 619.511 944.404 620.123C974.864 623.867 978.659 627.201 978.454 629.651C978.249 632.986 970.044 637.546 908.098 643.671C869.638 647.482 823.793 650.613 790.359 652.859L782.051 653.403C776 653.812 770.565 654.016 765.642 654.016C746.873 654.016 735.899 651.021 733.028 645.168C727.797 634.62 751.899 617.741 778.257 607.465ZM907.585 641.697C968.403 635.64 975.172 631.217 975.274 629.583C975.274 628.767 973.121 625.772 943.686 622.165L943.378 622.097C943.363 622.094 943.272 622.071 943.108 622.029C940.051 621.255 911.662 614.066 878.56 608.962C860.612 606.172 839.177 603.722 819.691 603.722C804.409 603.722 790.256 605.287 779.898 609.302C766.872 614.407 754.668 621.008 746.36 627.474C737.643 634.347 733.951 640.404 736.002 644.624C739.181 650.885 754.975 653.267 781.744 651.43L790.051 650.885C792.522 650.714 795.06 650.539 797.658 650.36C830.206 648.114 872.062 645.227 907.585 641.697Z" fill="#848484"/>
<path fill-rule="evenodd" clip-rule="evenodd" d="M802.093 178.648C801.278 173.312 812.381 167.041 834.996 159.904C849.868 155.234 867.593 156.702 879.919 163.706C889.699 169.243 900.293 177.114 894.996 183.651C890.921 188.721 877.984 191.389 860.768 191.389C849.257 191.389 835.811 190.189 821.753 187.72C809.02 185.519 802.602 182.517 802.093 178.648ZM822.568 185.786C855.064 191.523 886.337 190.122 892.347 182.717C895.709 178.448 890.819 172.445 877.984 165.24C870.853 161.305 861.991 159.237 853.026 159.237C847.322 159.237 841.617 160.037 836.32 161.705C815.641 168.242 804.537 174.179 805.148 178.448C805.556 181.317 811.566 183.851 822.568 185.786Z" fill="#848484"/>
<path d="M1126.46 927.009C1072.87 922.54 1041.39 892.61 1001.68 854.69C990.574 844.127 979.053 833.157 966.092 821.781C933.586 793.274 897.171 776.142 857.978 770.86C813.437 764.902 764.472 774.111 712.524 798.217C655.432 824.693 572.83 867.285 501.954 906.83C482.1 917.935 456.178 932.697 430.77 948H435.296C455.458 935.947 478.397 922.675 503.908 908.387C574.681 868.91 657.181 826.318 714.169 799.91C810.968 755.015 894.908 762.802 963.52 823.068C976.379 834.376 987.9 845.346 999.009 855.909C1039.23 894.235 1071.02 924.436 1125.95 929.04C1164.93 932.29 1187.26 938.655 1192.61 948H1195.9C1190.86 937.504 1167.51 930.462 1126.46 927.009Z" fill="#848484"/>
<path d="M832 848.085C812.615 842.451 792.718 843.13 772.82 850.053C723.487 867.158 678.769 887.386 639.897 910.26C616 924.311 597.949 937.208 584.615 948H588.718C619.077 923.768 677.743 885.282 774.154 851.818C793.231 845.234 812.205 844.555 830.666 849.918C867.897 860.71 897.025 893.97 914.872 920.035C921.743 929.945 927.487 939.651 932.102 948H935.384C930.667 939.447 924.82 929.47 917.743 919.22C891.487 880.87 862.564 856.909 832 848.085Z" fill="#848484"/>
<path fill-rule="evenodd" clip-rule="evenodd" d="M350.74 711.937C347.109 707.071 347.732 700.043 357.899 696.123C373.15 690.243 394.003 692.946 402.198 697.542C405.726 699.502 406.971 701.8 405.622 703.962C402.925 708.558 392.55 713.289 374.913 717.952C372.32 718.628 369.726 718.966 367.34 718.966C359.663 718.966 353.645 715.722 350.74 711.937ZM373.668 716.06C390.267 711.667 400.331 707.206 402.717 703.219C403.754 701.529 401.887 699.975 400.019 699.096C395.662 696.663 387.051 694.839 377.922 694.839C371.593 694.839 365.057 695.717 359.351 697.88C350.844 701.124 350.221 706.801 353.437 710.991C356.654 715.181 364.331 718.56 373.668 716.06Z" fill="#848484"/>
<path fill-rule="evenodd" clip-rule="evenodd" d="M514.455 878C510.461 884.793 467.144 899.615 452.807 903.526C449.735 904.349 446.765 904.761 444 904.693C435.193 904.693 428.332 900.918 424.953 896.39C420.652 890.626 421.471 882.323 433.145 877.725C453.626 869.628 502.883 868.324 512.714 873.951C514.762 875.049 515.376 876.49 514.455 878ZM434.682 879.509C424.646 883.489 423.929 890.42 427.718 895.498C431.507 900.575 440.519 904.693 451.578 901.605C469.704 896.596 508.31 882.597 511.485 877.245C511.792 876.765 511.895 876.216 510.666 875.529C501.859 870.52 453.422 872.098 434.682 879.509Z" fill="#848484"/>
<path d="M83.2608 47.784C99.8311 40.2408 94.4099 16.2517 88.8865 1.09722H85.7156C87.1476 4.90284 88.4773 9.32008 89.6025 13.9412C92.2619 25.6978 93.0802 40.8524 81.6242 46.1531C68.1224 52.2692 40.7098 44.2502 0 22.3V24.8824C31.4018 41.6679 55.2344 50.0946 71.191 50.0946C75.8962 50.0946 79.8853 49.2791 83.2608 47.784Z" fill="#848484"/>
<path fill-rule="evenodd" clip-rule="evenodd" d="M693.093 495.629C677.851 495.629 661.572 494.633 649.958 491.777C633.368 487.793 632.435 481.684 634.82 477.301C637.205 472.586 642.078 469.133 649.44 467.074C662.609 463.422 683.346 464.285 711.032 469.731C731.459 473.781 748.36 478.895 748.567 478.961C757.277 481.75 757.588 484.406 756.448 486.133C753.026 491.113 731.459 494.035 712.483 495.098C706.573 495.43 699.937 495.629 693.093 495.629ZM650.58 468.934C644.048 470.727 639.693 473.781 637.619 477.965C635.027 483.078 639.485 487.129 651.099 489.984C664.786 493.305 688.22 494.5 712.172 493.172C734.258 491.91 751.263 488.723 753.544 485.402C754.685 483.676 750.641 481.949 747.115 480.82C746.078 480.488 701.077 466.941 668.726 466.941C661.986 466.941 655.765 467.473 650.58 468.934Z" fill="#848484"/>
</g>
<defs>
<linearGradient id="paint0_linear_417_47" x1="720" y1="0" x2="720" y2="948" gradientUnits="userSpaceOnUse">
<stop offset="0.63" stop-color="#F5F6FA"/>
<stop offset="1" stop-color="#9DA2AD"/>
</linearGradient>
</defs>
</svg>
