<svg width="27" height="30" viewBox="0 0 27 30" fill="none" xmlns="http://www.w3.org/2000/svg">
<g clip-path="url(#clip0_391_383)">
<path d="M0 7.54742V30C0.0441718 29.9919 0.0579755 29.9377 0.0800613 29.9214L0.0386503 7.54742H0Z" fill="#162524"/>
<path d="M22.5027 6.02168C18.7094 6.85366 14.6539 6.05149 10.9517 5.18157L10.9131 5.21951C14.5683 6.66667 18.149 9.05149 19.7088 12.7425C20.9677 15.7209 20.722 19.0894 19.5321 22.0488L19.5708 22.0867C22.5027 19.4065 24.4683 15.5501 25.6002 11.8103C26.4312 9.06233 26.8977 6.18699 27.0027 3.31707C25.926 4.79133 24.2833 5.62873 22.5027 6.01897V6.02168Z" fill="#162524"/>
<path d="M6.54278 21.2737C6.14247 21.3062 5.73388 21.3631 5.33634 21.4282V6.88618C8.98879 6.99187 12.3569 8.26287 15.413 10.1274C15.4462 10.1491 15.4986 10.2249 15.5345 10.1626C12.4397 6.9458 8.0253 5.14905 3.55566 4.75339V24.065L4.72622 23.4119C8.22407 21.7425 11.7026 21.9783 15.413 22.6314L15.4517 22.5935C12.8731 21.2656 9.4029 21.0379 6.53726 21.2764L6.54278 21.2737Z" fill="#162524"/>
<path d="M14.3309 23.252C12.5668 22.916 10.372 23.2331 8.64931 23.6883C6.14256 24.3523 3.76005 25.5366 1.58183 26.897V9.09756H2.60882V7.54742H0.0385742L0.118636 7.58536C0.132439 14.9783 0.143482 22.3767 0.157286 29.7778L0.0772245 29.9241C1.59563 28.7154 3.1444 27.5583 4.83397 26.5827C7.74931 24.8997 11.065 23.5989 14.4662 23.3306C14.4496 23.252 14.3861 23.2656 14.3281 23.2547L14.3309 23.252Z" fill="#162524"/>
<path d="M0.118636 7.58266L0.0385742 7.54472L0.0772245 29.9187L0.157286 29.7724C0.143482 22.3713 0.132439 14.9756 0.118636 7.57995V7.58266Z" fill="#162524"/>
<path d="M18.1875 2.4878C18.1737 2.57995 18.0964 2.64499 18.1047 2.71545C18.1102 2.77507 18.1792 2.81301 18.182 2.87263C18.1875 2.96206 17.9804 3.35501 18.0274 3.39837H18.5409C18.563 3.38211 18.3421 2.93767 18.3449 2.87534C18.3449 2.81843 18.4166 2.77507 18.4249 2.71816C18.4332 2.6477 18.3559 2.58266 18.3421 2.49051C18.3173 2.31165 18.3642 2.07588 18.3421 1.88889C18.447 1.90786 19.1427 2.16802 19.1648 2.20596C19.1952 2.25745 19.1565 2.40108 19.1703 2.47154C19.405 2.37398 19.5927 2.32249 19.8412 2.27913C19.913 2.26558 20.0289 2.18699 20.1173 2.26016C20.0289 2.28997 19.9323 2.28997 19.8412 2.31707C18.4194 2.77236 18.2786 4.50407 19.3884 5.3794C20.9648 6.62331 23.1762 4.98916 22.3783 3.10569C22.3314 2.99458 22.2016 2.84282 22.1823 2.7561C22.163 2.6748 22.1574 2.2981 22.1933 2.24119C22.2982 2.07317 23.593 1.6748 23.7946 1.42818C22.9581 1.09756 22.1768 0.636856 21.3568 0.271002C21.2381 0.216802 20.7881 -0.00271047 20.7081 0.0108397L17.3896 1.43089L18.182 1.80488C18.1544 2.02168 18.2123 2.29268 18.182 2.49864L18.1875 2.4878Z" fill="#162524"/>
<path d="M10.9519 5.18157C10.8884 5.16531 10.7862 5.06504 10.6758 5.10569L10.9132 5.22222C10.8608 5.17073 10.8828 5.16802 10.9519 5.18428V5.18157Z" fill="#162524"/>
<path d="M10.9106 5.21951L10.9493 5.18157C10.8775 5.16531 10.8582 5.16802 10.9106 5.21951Z" fill="#162524"/>
<path d="M19.5293 22.0488C19.5127 22.0894 19.4216 22.1274 19.452 22.2033C19.5154 22.1951 19.5375 22.1192 19.5707 22.0867C19.5154 22.1382 19.4934 22.1165 19.532 22.0488H19.5293Z" fill="#162524"/>
<path d="M19.5681 22.0894L19.5295 22.0515C19.4936 22.1192 19.5129 22.1409 19.5681 22.0894Z" fill="#162524"/>
<path d="M15.4576 22.5935C15.5101 22.645 15.488 22.6531 15.4189 22.6314C15.4466 22.6369 15.5073 22.7019 15.5763 22.6694C15.5901 22.6179 15.5128 22.6206 15.4576 22.5935Z" fill="#162524"/>
<path d="M15.4576 22.5935L15.4189 22.6314C15.488 22.6504 15.5101 22.6423 15.4576 22.5935Z" fill="#162524"/>
</g>
<defs>
<clipPath id="clip0_391_383">
<rect width="27" height="30" fill="white"/>
</clipPath>
</defs>
</svg>
