<svg width="30" height="36" viewBox="0 0 30 36" fill="none" xmlns="http://www.w3.org/2000/svg">
<path d="M15.0554 35.3333V32.5554H27.2221V30.5H20.8888V17.8333H27.2221V15.3888C27.2221 12.0185 26.0369 9.125 23.6667 6.70833C21.2964 4.29167 18.426 3.08333 15.0554 3.08333C11.6851 3.08333 8.79625 4.29167 6.38875 6.70833C3.98153 9.125 2.77792 12.0185 2.77792 15.3888V17.8333H9.11125V30.5H2.77792C2.02792 30.5 1.37736 30.2246 0.82625 29.6737C0.275417 29.1226 0 28.4721 0 27.7221V15.3888C0 13.3196 0.395833 11.3693 1.1875 9.53791C1.97917 7.70653 3.05556 6.10583 4.41667 4.73583C5.77778 3.36555 7.37458 2.28458 9.20708 1.49292C11.0396 0.701249 12.991 0.305416 15.0613 0.305416C17.1315 0.305416 19.0764 0.701249 20.8958 1.49292C22.7153 2.28458 24.2968 3.36555 25.6404 4.73583C26.984 6.10583 28.0465 7.70653 28.8279 9.53791C29.6093 11.3693 30 13.3196 30 15.3888V32.5554C30 33.3054 29.7246 33.956 29.1737 34.5071C28.6226 35.0579 27.9721 35.3333 27.2221 35.3333H15.0554ZM2.77792 27.7221H6.33333V20.6112H2.77792V27.7221ZM23.6667 27.7221H27.2221V20.6112H23.6667V27.7221Z" fill="#202224"/>
</svg>
